<svg width="280" height="280" viewBox="0 0 280 280" fill="none" xmlns="http://www.w3.org/2000/svg">
<path d="M222.957 156.133C222.798 156.092 222.639 156.051 222.479 156.009C221.771 155.826 221.051 155.64 220.335 155.435L220.329 155.433L220.329 155.433C218.694 154.949 217.053 154.41 215.462 153.672L215.461 153.671C214.347 153.152 213.615 152.332 213.184 151.21L213.181 151.203L213.181 151.203C212.358 148.994 211.878 146.714 211.453 144.471L211.453 144.469C211.367 144.012 211.29 143.541 211.216 143.082C211.197 142.968 211.179 142.855 211.16 142.743C211.086 143.123 211.012 143.503 210.938 143.885C210.657 145.33 210.375 146.785 210.053 148.231M222.957 156.133L199.016 155.441L199.175 156.081C199.18 156.083 199.185 156.084 199.19 156.085L199.202 156.088L199.202 156.088C199.253 156.102 199.304 156.116 199.355 156.13M222.957 156.133C222.829 156.167 222.701 156.2 222.573 156.234C221.687 156.467 220.798 156.702 219.91 156.959L219.908 156.959C218.449 157.385 216.98 157.867 215.56 158.549C215.56 158.549 215.559 158.55 215.559 158.55L215.559 158.55L215.559 158.55L215.558 158.55C215.551 158.554 215.531 158.563 215.508 158.574C215.491 158.582 215.465 158.596 215.433 158.615C214.324 159.108 213.612 159.956 213.205 161.049C212.624 162.606 212.203 164.19 211.868 165.786M222.957 156.133L211.243 169.868C211.22 169.748 211.197 169.627 211.174 169.506M210.053 148.231C210.052 148.231 210.052 148.232 210.052 148.233L209.32 148.07L210.053 148.228C210.053 148.229 210.053 148.23 210.053 148.231ZM210.053 148.231C209.784 149.469 209.403 150.687 208.843 151.852L208.838 151.863L208.838 151.863C208.541 152.453 208.1 153.008 207.419 153.346L207.415 153.349L207.415 153.349C207.325 153.393 207.234 153.438 207.142 153.483C206.589 153.755 206.003 154.043 205.4 154.285L205.398 154.286C203.425 155.07 201.382 155.633 199.355 156.13M199.355 156.13C199.301 156.143 199.248 156.156 199.195 156.169L206.815 159.413L207.156 158.746C207.155 158.745 207.155 158.745 207.155 158.745C205.743 158.023 204.27 157.516 202.794 157.077L202.793 157.077C201.954 156.829 201.11 156.602 200.272 156.377C199.965 156.295 199.659 156.213 199.355 156.13ZM209.024 160.765C209.024 160.765 209.024 160.764 209.024 160.764L208.332 161.054L209.025 160.767C209.025 160.766 209.024 160.766 209.024 160.765ZM209.024 160.765C209.589 162.11 209.977 163.505 210.277 164.892L210.277 164.893C210.527 166.065 210.749 167.248 210.969 168.418C211.037 168.782 211.105 169.145 211.174 169.506M209.024 160.765L210.508 170.019L211.101 169.893C211.104 169.882 211.108 169.868 211.111 169.849L211.111 169.848C211.132 169.735 211.153 169.62 211.174 169.506M211.174 169.506C211.222 169.237 211.27 168.966 211.319 168.694C211.49 167.729 211.665 166.748 211.868 165.786M211.868 165.786C211.868 165.786 211.868 165.786 211.868 165.787L212.602 165.941L211.868 165.786C211.868 165.786 211.868 165.786 211.868 165.786Z" fill="#D2D7E5" stroke="#5D5D65" stroke-width="1.5"/>
<path d="M86.5006 98.6169C86.472 98.6006 86.4167 98.5749 86.3184 98.5486L86.3181 98.5485C85.9335 98.4455 85.5411 98.3437 85.145 98.241C84.3865 98.0442 83.6144 97.8438 82.8574 97.6249L82.8563 97.6246C80.8633 97.045 78.8621 96.3946 76.938 95.4867C75.6214 94.8732 74.7627 93.9111 74.2537 92.5728L74.2529 92.5708C73.2433 89.8928 72.6674 87.1144 72.1502 84.3907C72.0521 83.8796 71.9647 83.3413 71.8793 82.8152C71.8254 82.4834 71.7724 82.1566 71.7179 81.8444C71.7026 81.7634 71.6675 81.7357 71.6604 81.7311C71.658 81.7295 71.6565 81.729 71.6561 81.7288L71.6553 81.7286C71.6551 81.7286 71.6538 81.7284 71.6507 81.7287C71.6479 81.729 71.6422 81.73 71.6336 81.7328C71.6281 81.7348 71.6244 81.7365 71.6219 81.7377C71.6213 81.7387 71.6204 81.7399 71.6194 81.7415C71.6128 81.7523 71.6008 81.7755 71.5863 81.8191C71.5717 81.8629 71.5573 81.9188 71.5425 81.9926C71.4693 82.3668 71.3964 82.7414 71.3235 83.1163C70.9433 85.0697 70.5616 87.0311 70.1365 88.9833L70.136 88.9857C69.8067 90.4745 69.3475 91.9404 68.6781 93.3511L68.6762 93.3552C68.3262 94.0816 67.804 94.7116 67.0234 95.1083L67.0138 95.1132L67.0138 95.1131C66.8919 95.1729 66.7689 95.2337 66.6449 95.295C65.9742 95.6265 65.2744 95.9724 64.5578 96.2536C64.5577 96.2537 64.5576 96.2537 64.5574 96.2538L64.2834 95.5556C61.8587 96.512 59.3601 97.1864 56.837 97.8118L86.5006 98.6169ZM86.5006 98.6169V98.6456C86.5006 98.6617 86.4993 98.6724 86.4983 98.6786C86.4845 98.6893 86.4425 98.7165 86.3465 98.7417L86.3446 98.7422C86.0332 98.8247 85.7208 98.9069 85.4076 98.9892C84.3795 99.2595 83.3441 99.5317 82.318 99.8251L82.3136 99.8264C80.5488 100.343 78.7778 100.929 77.0706 101.745C77.0538 101.752 77.0394 101.758 77.0279 101.763C77.0092 101.772 76.9919 101.78 76.9823 101.785L76.9672 101.792C75.6044 102.361 74.7467 103.379 74.2423 104.691L74.2423 104.691L74.2401 104.697C73.5331 106.584 73.0316 108.511 72.621 110.445L72.6208 110.446C72.3612 111.674 72.1422 112.921 71.9262 114.151C71.853 114.569 71.78 114.984 71.706 115.396C71.6852 115.507 71.6496 115.545 71.6451 115.549C71.6447 115.55 71.6444 115.55 71.6441 115.55C71.6424 115.551 71.6382 115.552 71.631 115.553C71.6126 115.552 71.6003 115.55 71.5931 115.548C71.5847 115.534 71.5692 115.5 71.5572 115.434L71.5573 115.434L71.5551 115.423C71.4088 114.676 71.2662 113.918 71.123 113.157C70.8852 111.892 70.6455 110.618 70.3839 109.368L70.3832 109.365C70.0195 107.666 69.54 105.99 68.8664 104.369C68.4284 103.294 67.6988 102.509 66.6667 101.987C64.9583 101.111 63.1731 100.495 61.3833 99.9622C60.247 99.6236 59.0933 99.3146 57.9541 99.0095C57.6374 98.9247 57.3218 98.8402 57.008 98.7554L56.9989 98.7529L56.9898 98.7507C56.8501 98.7167 56.7802 98.6823 56.7501 98.664C56.75 98.6621 56.75 98.66 56.75 98.6579C56.75 98.6527 56.7501 98.6482 56.7503 98.6444C56.7794 98.6245 56.8555 98.5822 57.0218 98.5387" fill="#D2D7E5" stroke="#5D5D65" stroke-width="1.5"/>
<mask id="path-3-outside-1_3228_26694" maskUnits="userSpaceOnUse" x="124.06" y="68" width="30" height="18" fill="black">
<rect fill="white" x="124.06" y="68" width="30" height="18"/>
<path d="M126.06 85.3249V82.1033C126.06 75.4198 131.786 70 138.852 70C145.918 70 151.644 75.4198 151.644 82.1033V85.3249"/>
</mask>
<path d="M126.06 85.3249V82.1033C126.06 75.4198 131.786 70 138.852 70C145.918 70 151.644 75.4198 151.644 82.1033V85.3249" fill="#D2D7E5"/>
<path d="M127.56 85.3249V82.1033H124.56V85.3249H127.56ZM127.56 82.1033C127.56 76.3252 132.535 71.5 138.852 71.5V68.5C131.036 68.5 124.56 74.5145 124.56 82.1033H127.56ZM138.852 71.5C145.169 71.5 150.144 76.3252 150.144 82.1033H153.144C153.144 74.5145 146.668 68.5 138.852 68.5V71.5ZM150.144 82.1033V85.3249H153.144V82.1033H150.144Z" fill="#5D5D65" mask="url(#path-3-outside-1_3228_26694)"/>
<mask id="path-5-outside-2_3228_26694" maskUnits="userSpaceOnUse" x="118.943" y="192.599" width="40" height="20" fill="black">
<rect fill="white" x="118.943" y="192.599" width="40" height="20"/>
<path d="M156.76 192.599C156.76 202.474 149.272 210.478 140.035 210.478H137.668C128.431 210.478 120.943 202.474 120.943 192.599"/>
</mask>
<path d="M156.76 192.599C156.76 202.474 149.272 210.478 140.035 210.478H137.668C128.431 210.478 120.943 202.474 120.943 192.599" fill="#D2D7E5"/>
<path d="M155.26 192.599C155.26 201.741 148.351 208.978 140.035 208.978V211.978C150.193 211.978 158.26 203.207 158.26 192.599H155.26ZM140.035 208.978H137.668V211.978H140.035V208.978ZM137.668 208.978C129.352 208.978 122.443 201.741 122.443 192.599H119.443C119.443 203.207 127.51 211.978 137.668 211.978V208.978Z" fill="#5D5D65" mask="url(#path-5-outside-2_3228_26694)"/>
<mask id="path-7-outside-3_3228_26694" maskUnits="userSpaceOnUse" x="88.2422" y="83.3252" width="101" height="92" fill="black">
<rect fill="white" x="88.2422" y="83.3252" width="101" height="92"/>
<path d="M90.2422 174.72V132.779C90.2422 106.569 112.007 85.3252 138.852 85.3252C165.7 85.3252 187.461 106.573 187.461 132.779V174.72"/>
</mask>
<path d="M90.2422 174.72V132.779C90.2422 106.569 112.007 85.3252 138.852 85.3252C165.7 85.3252 187.461 106.573 187.461 132.779V174.72" fill="#D2D7E5"/>
<path d="M91.7422 174.72V132.779H88.7422V174.72H91.7422ZM91.7422 132.779C91.7422 107.431 112.801 86.8252 138.852 86.8252V83.8252C111.213 83.8252 88.7422 105.706 88.7422 132.779H91.7422ZM138.852 86.8252C164.906 86.8252 185.961 107.435 185.961 132.779H188.961C188.961 105.71 166.494 83.8252 138.852 83.8252V86.8252ZM185.961 132.779V174.72H188.961V132.779H185.961Z" fill="#5D5D65" mask="url(#path-7-outside-3_3228_26694)"/>
<path d="M202.972 190.536C204.906 188.793 206.12 186.36 206.12 183.661C206.12 178.238 201.28 173.97 195.475 173.97H82.2281C79.3156 173.97 76.6589 175.037 74.7307 176.783C72.797 178.526 71.5835 180.959 71.5835 183.661C71.5835 189.081 76.4237 193.349 82.2281 193.349H195.475C198.392 193.349 201.044 192.281 202.972 190.536Z" fill="#D2D7E5" stroke="#5D5D65" stroke-width="1.5" stroke-miterlimit="10"/>
</svg>
