<svg width="393" height="359" viewBox="0 0 393 359" fill="none" xmlns="http://www.w3.org/2000/svg">
    <path opacity="0.5" d="M1268.67 188.19C1231.68 202.891 1188.54 201.341 1152.68 184.032C1118.26 167.403 1089.81 136.98 1052.18 130.366C968.078 115.551 897.426 225.869 814.419 205.952C750.491 190.608 729.711 111.356 684.448 63.6995C642.964 20.0487 579.981 3.87329 519.908 0.69868C360.618 -7.65356 208.885 60.5627 59.0418 115.249C-90.8396 169.936 -259.008 211.735 -407 152.211C-405.829 184.184 -405.678 244.766 -404.506 276.738C-247.749 325.529 -75.5757 211.659 82.2022 256.973C173.03 283.05 250.71 360.147 345.052 354.705C399.987 351.531 448.613 320.352 497.578 295.257C546.544 270.2 604.577 250.397 655.621 270.881C678.932 280.253 698.277 297.109 718.15 312.491C872.905 432.294 1088.19 469.18 1273.96 407.691C1273.21 345.522 1269.39 250.359 1268.67 188.152V188.19Z" fill="var(--highlight, #C9CEDC)"/>
</svg>
