<svg width="393" height="389" viewBox="0 0 393 389" fill="none" xmlns="http://www.w3.org/2000/svg">
<path opacity="0.5" d="M892.673 189.171C855.684 203.872 812.537 202.323 776.682 185.014C742.262 168.385 713.812 137.962 676.181 131.348C592.078 116.533 521.426 226.851 438.419 206.934C374.491 191.59 353.711 112.338 308.448 64.681C266.964 21.0301 203.981 4.85473 143.908 1.68012C-15.3817 -6.67212 -167.115 61.5442 -316.958 116.231C-466.84 170.917 -635.008 212.716 -783 153.192C-781.829 185.165 -781.678 245.747 -780.506 277.72C-623.749 326.511 -451.576 212.64 -293.798 257.954C-202.97 284.031 -125.29 361.129 -30.9479 355.687C23.9872 352.512 72.6128 321.333 121.578 296.238C170.544 271.182 228.577 251.378 279.621 271.862C302.932 281.235 322.277 298.09 342.15 313.472C496.905 433.276 712.188 470.162 897.962 408.673C897.206 346.503 893.391 251.34 892.673 189.133V189.171Z" fill="var(--highlight, #C9CEDC)"/>
</svg>
