<svg width="393" height="389" viewBox="0 0 393 389" fill="none" xmlns="http://www.w3.org/2000/svg">
<path opacity="0.5" d="M436.673 188.19C399.684 202.891 356.537 201.342 320.682 184.032C286.262 167.403 257.812 136.98 220.181 130.366C136.078 115.552 65.426 225.869 -17.5812 205.952C-81.5084 190.608 -102.289 111.356 -147.552 63.6995C-189.036 20.0487 -252.019 3.87329 -312.092 0.69868C-471.382 -7.65357 -623.115 60.5627 -772.958 115.249C-922.84 169.936 -1091.01 211.735 -1239 152.211C-1237.83 184.184 -1237.68 244.766 -1236.51 276.738C-1079.75 325.529 -907.576 211.659 -749.798 256.973C-658.97 283.05 -581.29 360.148 -486.948 354.705C-432.013 351.531 -383.387 320.352 -334.422 295.257C-285.456 270.2 -227.423 250.397 -176.379 270.881C-153.068 280.253 -133.723 297.109 -113.85 312.491C40.9054 432.294 250.898 391.489 436.673 330C435.917 267.831 437.391 250.359 436.673 188.152V188.19Z" fill="var(--highlight, #C9CEDC)"/>
</svg>
