<svg width="393" height="245" viewBox="0 0 393 245" fill="none" xmlns="http://www.w3.org/2000/svg">
<path opacity="0.5" d="M505.46 112.745C480.705 122.568 451.828 121.533 427.832 109.967C404.796 98.856 385.756 78.5277 360.571 74.1085C304.284 64.2095 257 137.922 201.446 124.614C158.662 114.361 144.755 61.4064 114.462 29.5629C86.6983 0.39617 44.5465 -10.4119 4.34174 -12.5332C-102.264 -18.114 -203.813 27.4669 -304.097 64.0074C-404.407 100.548 -516.955 128.477 -616 88.7045C-615.216 110.068 -615.115 150.548 -614.331 171.912C-509.419 204.513 -394.191 128.427 -288.597 158.705C-227.809 176.129 -175.821 227.644 -112.682 224.008C-75.9161 221.887 -43.373 201.053 -10.6023 184.286C22.1683 167.543 61.0077 154.311 95.1691 167.998C110.771 174.26 123.717 185.523 137.017 195.801C240.589 275.851 384.669 300.498 509 259.412C508.494 217.871 505.94 154.285 505.46 112.72V112.745Z" fill="var(--highlight, #C9CEDC)"/>
</svg>
