<svg width="280" height="280" viewBox="0 0 280 280" fill="none" xmlns="http://www.w3.org/2000/svg">
<path d="M131.775 111.621C144.098 85.8049 169.661 79.793 185.292 79.793C219.412 79.793 246.027 104.851 246.027 138.261C246.027 149.618 239.584 164.707 235.288 174.569" fill="#36415C"/>
<path d="M131.775 111.621C144.098 85.8049 169.661 79.793 185.292 79.793C219.412 79.793 246.027 104.851 246.027 138.261C246.027 149.618 239.584 164.707 235.288 174.569" stroke="#C0C0CA" stroke-width="1.5" stroke-miterlimit="10"/>
<path d="M150.611 104.548C159.358 95.8557 174.516 89.3416 186.876 89.3416C209.683 88.2806 235.464 110.248 235.464 137.344C235.464 146.554 231.418 157.659 227.014 165.02" fill="#36415C"/>
<path d="M150.611 104.548C159.358 95.8557 174.516 89.3416 186.876 89.3416C209.683 88.2806 235.464 110.248 235.464 137.344C235.464 146.554 231.418 157.659 227.014 165.02" stroke="#C0C0CA" stroke-width="1.5" stroke-miterlimit="10"/>
<path d="M160.646 111.268C167.114 104.81 176.988 100.305 186.128 100.305C206.079 100.305 222.26 116.623 222.26 136.752C222.26 143.594 221.089 149.297 217.832 154.765" fill="#36415C"/>
<path d="M160.646 111.268C167.114 104.81 176.988 100.305 186.128 100.305C206.079 100.305 222.26 116.623 222.26 136.752C222.26 143.594 221.089 149.297 217.832 154.765" stroke="#C0C0CA" stroke-width="1.5" stroke-miterlimit="10"/>
<path d="M42.1411 175.736C42.2467 176.132 42.3594 176.514 42.4861 176.889L47.6266 189.068L167.511 119.047C166.23 116.409 165.328 115.285 163.575 113.191C157.554 105.963 149.189 102.285 141.274 104.357C136.549 105.595 132.683 108.707 129.965 112.979C125.177 100.184 113.973 92.2908 103.601 95.0068C95.7565 97.0649 90.4471 104.647 89.2077 114.068C84.4757 111.508 79.286 110.631 74.2653 111.946C64.7942 114.429 58.5764 124.005 57.7103 135.647C55.633 135.131 53.4993 135.096 51.408 135.64C42.9227 137.868 38.3949 148.718 41.2891 159.886C41.7538 161.661 42.3876 163.33 43.1481 164.886C41.5707 167.807 41.106 171.74 42.1411 175.736Z" fill="#253151" stroke="#C0C0CA" stroke-width="1.5" stroke-miterlimit="10"/>
<path d="M130.81 198.333H24.678C23.8189 196.402 23.333 194.266 23.333 192.01C23.333 183.41 30.2691 176.443 38.8318 176.443C42.585 176.443 46.0284 177.787 48.7112 180.022C48.7605 179.809 48.8169 179.604 48.8802 179.399C50.4435 173.904 55.4713 169.886 61.4426 169.886C63.5199 169.886 65.4775 170.381 67.2168 171.251C68.5265 163.365 74.0261 156.908 81.3424 154.27" fill="#253151"/>
<path d="M130.81 198.333H24.678C23.8189 196.402 23.333 194.266 23.333 192.01C23.333 183.41 30.2691 176.443 38.8318 176.443C42.585 176.443 46.0284 177.787 48.7112 180.022C48.7605 179.809 48.8169 179.604 48.8802 179.399C50.4435 173.904 55.4713 169.886 61.4426 169.886C63.5199 169.886 65.4775 170.381 67.2168 171.251C68.5265 163.365 74.0261 156.908 81.3424 154.27" stroke="#C0C0CA" stroke-width="1.5" stroke-miterlimit="10"/>
<path d="M194.784 147.523C196.678 144.276 200.192 142.098 204.206 142.098C210.233 142.098 215.12 147.006 215.12 153.061C215.12 154.001 214.993 154.907 214.775 155.776C215.655 155.472 216.599 155.303 217.585 155.303C219.31 155.303 220.915 155.798 222.275 156.661C224.746 158.231 226.387 160.996 226.387 164.144C226.387 164.632 226.338 165.106 226.26 165.572C227.33 165.19 228.478 164.971 229.675 164.971C235.252 164.971 239.766 169.505 239.766 175.107C239.766 176.507 239.484 177.837 238.977 179.053C240.428 178.494 241.991 178.169 243.639 178.169C250.836 178.169 256.666 184.032 256.666 191.254C256.666 193.864 255.899 196.29 254.589 198.327H188.714" fill="#253151"/>
<path d="M194.784 147.523C196.678 144.276 200.192 142.098 204.206 142.098C210.233 142.098 215.12 147.006 215.12 153.061C215.12 154.001 214.993 154.907 214.775 155.776C215.655 155.472 216.599 155.303 217.585 155.303C219.31 155.303 220.915 155.798 222.275 156.661C224.746 158.231 226.387 160.996 226.387 164.144C226.387 164.632 226.338 165.106 226.26 165.572C227.33 165.19 228.478 164.971 229.675 164.971C235.252 164.971 239.766 169.505 239.766 175.107C239.766 176.507 239.484 177.837 238.977 179.053C240.428 178.494 241.991 178.169 243.639 178.169C250.836 178.169 256.666 184.032 256.666 191.254C256.666 193.864 255.899 196.29 254.589 198.327H188.714" stroke="#C0C0CA" stroke-width="1.5" stroke-miterlimit="10"/>
<path d="M188.383 118.807H87.7437C84.2086 118.807 81.3428 121.685 81.3428 125.236V191.904C81.3428 195.455 84.2086 198.333 87.7437 198.333H188.383C191.919 198.333 194.784 195.455 194.784 191.904V125.236C194.784 121.685 191.919 118.807 188.383 118.807Z" fill="#36415C" stroke="#C0C0CA" stroke-width="1.5" stroke-miterlimit="10"/>
<path d="M186.116 186.091H149.217C147.568 186.091 146.231 187.432 146.231 189.086C146.231 190.74 147.568 192.082 149.217 192.082H186.116C187.764 192.082 189.101 190.74 189.101 189.086C189.101 187.432 187.764 186.091 186.116 186.091Z" stroke="#C0C0CA" stroke-width="1.5" stroke-miterlimit="10"/>
<path d="M145.358 126.113H90.9544C89.3055 126.113 87.9688 127.454 87.9688 129.109C87.9688 130.763 89.3055 132.104 90.9544 132.104H145.358C147.007 132.104 148.344 130.763 148.344 129.109C148.344 127.454 147.007 126.113 145.358 126.113Z" stroke="#C0C0CA" stroke-width="1.5" stroke-miterlimit="10"/>
<path d="M126.022 138.116H90.9544C89.3055 138.116 87.9688 139.457 87.9688 141.112C87.9688 142.766 89.3055 144.107 90.9544 144.107H126.022C127.671 144.107 129.008 142.766 129.008 141.112C129.008 139.457 127.671 138.116 126.022 138.116Z" stroke="#C0C0CA" stroke-width="1.5" stroke-miterlimit="10"/>
</svg>
