<svg width="280" height="280" viewBox="0 0 280 280" fill="none" xmlns="http://www.w3.org/2000/svg">
<path d="M126.034 69.3007L20.5891 139.089C16.3055 141.924 15.1323 147.694 17.9686 151.975L55.2433 208.245C58.0796 212.527 63.8514 213.7 68.1349 210.865L173.58 141.076C177.864 138.241 179.037 132.472 176.201 128.19L138.926 71.92C136.09 67.6383 130.318 66.4656 126.034 69.3007Z" fill="#253151"/>
<path d="M126.034 69.3007L20.5891 139.089C16.3055 141.924 15.1323 147.694 17.9686 151.975L55.2433 208.245C58.0796 212.527 63.8514 213.7 68.1349 210.865L173.58 141.076C177.864 138.241 179.037 132.472 176.201 128.19L138.926 71.92C136.09 67.6383 130.318 66.4656 126.034 69.3007Z" stroke="#C0C0CA" stroke-width="1.5" stroke-miterlimit="10" stroke-dasharray="5 5"/>
<path d="M113.61 105.987L104.02 177.296C103.335 182.385 106.908 187.064 112 187.747L244.805 205.563C249.897 206.246 254.579 202.674 255.264 197.584L264.854 126.276C265.538 121.187 261.965 116.507 256.874 115.824L124.069 98.0089C118.977 97.3259 114.294 100.898 113.61 105.987Z" fill="#36415C"/>
<path d="M113.61 105.987L104.02 177.296C103.335 182.385 106.908 187.064 112 187.747L244.805 205.563C249.897 206.246 254.579 202.674 255.264 197.584L264.854 126.276C265.538 121.187 261.965 116.507 256.874 115.824L124.069 98.0089C118.977 97.3259 114.294 100.898 113.61 105.987Z" stroke="#C0C0CA" stroke-width="1.5" stroke-miterlimit="10" stroke-dasharray="5 5"/>
<path d="M201.203 153.306L187.495 151.465L189.337 137.774L188.579 137.669L186.737 151.36L173.04 149.519L172.936 150.288L186.644 152.117L184.802 165.82L185.56 165.913L187.402 152.222L201.099 154.063L201.203 153.306Z" fill="#C0C0CA" stroke="#C0C0CA" stroke-width="1.5" stroke-miterlimit="10"/>
</svg>
