<svg width="280" height="280" viewBox="0 0 280 280" fill="none" xmlns="http://www.w3.org/2000/svg">
<path d="M131.775 111.621C144.098 85.8049 169.661 79.793 185.292 79.793C219.412 79.793 246.027 104.851 246.027 138.261C246.027 149.618 239.584 164.707 235.288 174.569" fill="#D2D7E5"/>
<path d="M131.775 111.621C144.098 85.8049 169.661 79.793 185.292 79.793C219.412 79.793 246.027 104.851 246.027 138.261C246.027 149.618 239.584 164.707 235.288 174.569" stroke="#5D5D65" stroke-width="1.5" stroke-miterlimit="10"/>
<path d="M150.612 104.548C159.359 95.8557 174.517 89.3416 186.876 89.3416C209.683 88.2806 235.464 110.248 235.464 137.344C235.464 146.554 231.419 157.659 227.014 165.02" fill="#D2D7E5"/>
<path d="M150.612 104.548C159.359 95.8557 174.517 89.3416 186.876 89.3416C209.683 88.2806 235.464 110.248 235.464 137.344C235.464 146.554 231.419 157.659 227.014 165.02" stroke="#5D5D65" stroke-width="1.5" stroke-miterlimit="10"/>
<path d="M160.646 111.268C167.114 104.81 176.988 100.305 186.128 100.305C206.08 100.305 222.261 116.623 222.261 136.752C222.261 143.594 221.09 149.297 217.832 154.765" fill="#D2D7E5"/>
<path d="M160.646 111.268C167.114 104.81 176.988 100.305 186.128 100.305C206.08 100.305 222.261 116.623 222.261 136.752C222.261 143.594 221.09 149.297 217.832 154.765" stroke="#5D5D65" stroke-width="1.5" stroke-miterlimit="10"/>
<path d="M42.1416 175.736C42.2472 176.132 42.3599 176.514 42.4866 176.889L47.6271 189.068L167.512 119.047C166.23 116.409 165.329 115.285 163.575 113.191C157.555 105.963 149.189 102.285 141.274 104.357C136.549 105.595 132.684 108.707 129.965 112.979C125.177 100.184 113.974 92.2908 103.601 95.0068C95.757 97.0649 90.4475 104.647 89.2082 114.068C84.4762 111.508 79.2865 110.631 74.2658 111.946C64.7947 114.429 58.5769 124.005 57.7108 135.647C55.6335 135.131 53.4998 135.096 51.4084 135.64C42.9232 137.868 38.3954 148.718 41.2895 159.886C41.7543 161.661 42.388 163.33 43.1486 164.886C41.5712 167.807 41.1065 171.74 42.1416 175.736Z" fill="#E9EBEF" stroke="#5D5D65" stroke-width="1.5" stroke-miterlimit="10"/>
<path d="M130.811 198.333H24.6785C23.8194 196.402 23.3335 194.266 23.3335 192.01C23.3335 183.41 30.2696 176.443 38.8322 176.443C42.5855 176.443 46.0288 177.787 48.7117 180.022C48.761 179.809 48.8174 179.604 48.8807 179.399C50.444 173.904 55.4717 169.886 61.4431 169.886C63.5204 169.886 65.478 170.381 67.2173 171.251C68.527 163.365 74.0266 156.908 81.3429 154.27" fill="#E9EBEF"/>
<path d="M130.811 198.333H24.6785C23.8194 196.402 23.3335 194.266 23.3335 192.01C23.3335 183.41 30.2696 176.443 38.8322 176.443C42.5855 176.443 46.0288 177.787 48.7117 180.022C48.761 179.809 48.8174 179.604 48.8807 179.399C50.444 173.904 55.4717 169.886 61.4431 169.886C63.5204 169.886 65.478 170.381 67.2173 171.251C68.527 163.365 74.0266 156.908 81.3429 154.27" stroke="#5D5D65" stroke-width="1.5" stroke-miterlimit="10"/>
<path d="M194.784 147.523C196.678 144.276 200.192 142.098 204.206 142.098C210.234 142.098 215.121 147.006 215.121 153.061C215.121 154.001 214.994 154.907 214.776 155.776C215.656 155.472 216.599 155.303 217.585 155.303C219.31 155.303 220.916 155.798 222.275 156.661C224.747 158.231 226.387 160.996 226.387 164.144C226.387 164.632 226.338 165.106 226.261 165.572C227.331 165.19 228.479 164.971 229.676 164.971C235.253 164.971 239.767 169.505 239.767 175.107C239.767 176.507 239.485 177.837 238.978 179.053C240.428 178.494 241.992 178.169 243.639 178.169C250.836 178.169 256.667 184.032 256.667 191.254C256.667 193.864 255.899 196.29 254.589 198.327H188.714" fill="#E9EBEF"/>
<path d="M194.784 147.523C196.678 144.276 200.192 142.098 204.206 142.098C210.234 142.098 215.121 147.006 215.121 153.061C215.121 154.001 214.994 154.907 214.776 155.776C215.656 155.472 216.599 155.303 217.585 155.303C219.31 155.303 220.916 155.798 222.275 156.661C224.747 158.231 226.387 160.996 226.387 164.144C226.387 164.632 226.338 165.106 226.261 165.572C227.331 165.19 228.479 164.971 229.676 164.971C235.253 164.971 239.767 169.505 239.767 175.107C239.767 176.507 239.485 177.837 238.978 179.053C240.428 178.494 241.992 178.169 243.639 178.169C250.836 178.169 256.667 184.032 256.667 191.254C256.667 193.864 255.899 196.29 254.589 198.327H188.714" stroke="#5D5D65" stroke-width="1.5" stroke-miterlimit="10"/>
<path d="M188.384 118.807H87.7442C84.209 118.807 81.3433 121.685 81.3433 125.236V191.904C81.3433 195.455 84.209 198.333 87.7442 198.333H188.384C191.919 198.333 194.785 195.455 194.785 191.904V125.236C194.785 121.685 191.919 118.807 188.384 118.807Z" fill="#D2D7E5" stroke="#5D5D65" stroke-width="1.5" stroke-miterlimit="10"/>
<path d="M186.117 186.091H149.218C147.569 186.091 146.232 187.432 146.232 189.086C146.232 190.74 147.569 192.082 149.218 192.082H186.117C187.765 192.082 189.102 190.74 189.102 189.086C189.102 187.432 187.765 186.091 186.117 186.091Z" stroke="#5D5D65" stroke-width="1.5" stroke-miterlimit="10"/>
<path d="M145.359 126.113H90.9554C89.3065 126.113 87.9697 127.454 87.9697 129.109C87.9697 130.763 89.3065 132.104 90.9554 132.104H145.359C147.008 132.104 148.345 130.763 148.345 129.109C148.345 127.454 147.008 126.113 145.359 126.113Z" stroke="#5D5D65" stroke-width="1.5" stroke-miterlimit="10"/>
<path d="M126.023 138.116H90.9554C89.3065 138.116 87.9697 139.457 87.9697 141.112C87.9697 142.766 89.3065 144.107 90.9554 144.107H126.023C127.672 144.107 129.009 142.766 129.009 141.112C129.009 139.457 127.672 138.116 126.023 138.116Z" stroke="#5D5D65" stroke-width="1.5" stroke-miterlimit="10"/>
</svg>
