<svg width="280" height="280" viewBox="0 0 280 280" fill="none" xmlns="http://www.w3.org/2000/svg">
<path d="M126.035 69.3007L20.5896 139.089C16.306 141.924 15.1328 147.694 17.9691 151.975L55.2438 208.245C58.0801 212.527 63.8518 213.7 68.1354 210.865L173.581 141.076C177.864 138.241 179.038 132.472 176.201 128.19L138.927 71.92C136.09 67.6383 130.319 66.4656 126.035 69.3007Z" fill="#E9EBEF"/>
<path d="M126.035 69.3007L20.5896 139.089C16.306 141.924 15.1328 147.694 17.9691 151.975L55.2438 208.245C58.0801 212.527 63.8518 213.7 68.1354 210.865L173.581 141.076C177.864 138.241 179.038 132.472 176.201 128.19L138.927 71.92C136.09 67.6383 130.319 66.4656 126.035 69.3007Z" stroke="#5D5D65" stroke-width="1.5" stroke-miterlimit="10" stroke-dasharray="5 5"/>
<path d="M113.61 105.987L104.02 177.296C103.336 182.385 106.908 187.064 112 187.747L244.805 205.563C249.897 206.246 254.58 202.674 255.264 197.584L264.854 126.276C265.539 121.187 261.966 116.507 256.874 115.824L124.069 98.0089C118.977 97.3259 114.295 100.898 113.61 105.987Z" fill="#D2D7E5"/>
<path d="M113.61 105.987L104.02 177.296C103.336 182.385 106.908 187.064 112 187.747L244.805 205.563C249.897 206.246 254.58 202.674 255.264 197.584L264.854 126.276C265.539 121.187 261.966 116.507 256.874 115.824L124.069 98.0089C118.977 97.3259 114.295 100.898 113.61 105.987Z" stroke="#5D5D65" stroke-width="1.5" stroke-miterlimit="10" stroke-dasharray="5 5"/>
<path d="M201.204 153.306L187.495 151.465L189.337 137.774L188.58 137.669L186.738 151.36L173.041 149.519L172.936 150.288L186.644 152.117L184.803 165.82L185.56 165.913L187.402 152.222L201.099 154.063L201.204 153.306Z" fill="#5D5D65" stroke="#5D5D65" stroke-width="1.5" stroke-miterlimit="10"/>
</svg>
