<svg width="280" height="280" viewBox="0 0 280 280" fill="none" xmlns="http://www.w3.org/2000/svg">
<path d="M82.058 212.753H29.166L46.4294 197.326L86.0984 181.532L98.2195 191.817L101.275 193.175C101.366 193.205 101.449 193.242 101.525 193.286L101.275 193.175C98.6128 192.289 90.0666 197.399 87.9349 199.53C81.2342 206.231 82.058 211.774 82.058 212.753Z" fill="#253151"/>
<path d="M29.166 213.12C30.6793 210.21 46.3118 176.036 47.164 170.145C49.1401 156.554 42.4633 149.576 42.3898 139.181C42.287 125.855 52.4172 109.951 68.1232 104.14C81.5446 99.1739 96.8025 100.386 109.247 108.166C117.004 113.014 123.513 123.849 120.376 138.027L125.614 165.465C123.153 165.921 120.685 166.376 118.224 166.832L119.825 184.095C120.119 187.298 118.011 190.912 115.227 192.668C111.899 194.762 107.733 195.041 104.038 193.696L87.0174 186.534" fill="#253151"/>
<path d="M29.166 213.12C30.6793 210.21 46.3118 176.036 47.164 170.145C49.1401 156.554 42.4633 149.576 42.3898 139.181C42.287 125.855 52.4172 109.951 68.1232 104.14C81.5446 99.1739 96.8025 100.386 109.247 108.166C117.004 113.014 123.513 123.849 120.376 138.027L125.614 165.465C123.153 165.921 120.685 166.376 118.224 166.832L119.825 184.095C120.119 187.298 118.011 190.912 115.227 192.668C111.899 194.762 107.733 195.041 104.038 193.696L87.0174 186.534" stroke="#C0C0CA" stroke-width="1.5" stroke-miterlimit="10"/>
<path d="M79.4349 150.531C78.2522 147.387 76.3349 146.256 73.705 146.087C69.7087 145.83 66.9539 150.259 67.0126 153.866C67.1008 159.288 71.3248 165.503 81.0731 168.566" stroke="#C0C0CA" stroke-width="1.5" stroke-miterlimit="10"/>
<path d="M102.628 193.109C100.432 193.22 95.6346 193.763 91.0066 197.113C83.1315 202.806 82.2059 211.937 82.0811 213.414" stroke="#C0C0CA" stroke-width="1.5" stroke-miterlimit="10"/>
<path d="M128.861 149.943C131.713 149.943 134.025 145.625 134.025 140.298C134.025 134.971 131.713 130.652 128.861 130.652C126.008 130.652 123.696 134.971 123.696 140.298C123.696 145.625 126.008 149.943 128.861 149.943Z" fill="#36415C" stroke="#C0C0CA" stroke-width="1.5" stroke-miterlimit="10"/>
<path d="M107.08 154.873C111.729 154.873 115.498 149.696 115.498 143.31C115.498 136.924 111.729 131.747 107.08 131.747C102.43 131.747 98.6611 136.924 98.6611 143.31C98.6611 149.696 102.43 154.873 107.08 154.873Z" fill="#36415C" stroke="#C0C0CA" stroke-width="1.5" stroke-miterlimit="10"/>
<path d="M63.4668 149.943L65.5457 147.012C67.6761 144 71.1361 142.208 74.8312 142.208H98.6988" stroke="#C0C0CA" stroke-width="1.5" stroke-miterlimit="10"/>
<path d="M115.094 139.739C116.365 139.1 117.9 138.512 119.685 138.145C121.213 137.829 122.631 137.741 123.88 137.77" stroke="#C0C0CA" stroke-width="1.5" stroke-miterlimit="10"/>
<path d="M158.824 141.251L142.461 148.474L147.506 133.354C137.323 123.71 133.004 110.336 137.391 97.2006C144.496 75.9439 171.681 63.3325 198.127 69.0395C224.568 74.7466 240.248 96.602 233.149 117.864C226.051 139.12 198.866 151.732 172.426 146.025C167.492 144.962 162.932 143.331 158.824 141.251Z" fill="#36415C" stroke="#C0C0CA" stroke-width="1.5" stroke-miterlimit="10"/>
<path d="M102.503 171.248C103.649 172.357 104.751 173.129 105.735 173.687C110.76 176.493 115.579 174.995 118.826 173.158" stroke="#C0C0CA" stroke-width="1.5" stroke-miterlimit="10"/>
<g filter="url(#filter0_d_3228_11614)">
<path d="M29.166 213.121H248.006" stroke="#C0C0CA" stroke-width="1.5" stroke-miterlimit="10" stroke-linecap="round"/>
</g>
<path d="M185.27 98.1533V116.519" stroke="#C0C0CA" stroke-width="1.5" stroke-linecap="round"/>
<path d="M193.224 102.744L177.319 111.927" stroke="#C0C0CA" stroke-width="1.5" stroke-linecap="round"/>
<path d="M193.224 111.927L177.319 102.744" stroke="#C0C0CA" stroke-width="1.5" stroke-linecap="round"/>
<path d="M159.799 98.1533V116.519" stroke="#C0C0CA" stroke-width="1.5" stroke-linecap="round"/>
<path d="M167.75 102.744L151.845 111.927" stroke="#C0C0CA" stroke-width="1.5" stroke-linecap="round"/>
<path d="M167.75 111.927L151.845 102.744" stroke="#C0C0CA" stroke-width="1.5" stroke-linecap="round"/>
<path d="M210.487 98.1533V116.519" stroke="#C0C0CA" stroke-width="1.5" stroke-linecap="round"/>
<path d="M218.441 102.744L202.537 111.927" stroke="#C0C0CA" stroke-width="1.5" stroke-linecap="round"/>
<path d="M218.441 111.927L202.537 102.744" stroke="#C0C0CA" stroke-width="1.5" stroke-linecap="round"/>
<g clip-path="url(#clip0_3228_11614)">
<path d="M146.108 181.527C147.401 181.527 148.45 180.542 148.45 179.326C148.45 178.11 147.401 177.125 146.108 177.125C144.814 177.125 143.766 178.11 143.766 179.326C143.766 180.542 144.814 181.527 146.108 181.527Z" fill="#C0C0CA"/>
<path d="M163.11 179.326C163.11 180.545 162.059 181.527 160.768 181.527C159.476 181.527 158.426 180.54 158.426 179.326C158.426 178.112 159.476 177.125 160.768 177.125C162.059 177.125 163.11 178.112 163.11 179.326Z" fill="#C0C0CA"/>
<path d="M175.416 181.527C176.71 181.527 177.758 180.542 177.758 179.326C177.758 178.11 176.71 177.125 175.416 177.125C174.123 177.125 173.074 178.11 173.074 179.326C173.074 180.542 174.123 181.527 175.416 181.527Z" fill="#C0C0CA"/>
<path d="M190.065 181.527C191.358 181.527 192.407 180.542 192.407 179.326C192.407 178.11 191.358 177.125 190.065 177.125C188.771 177.125 187.723 178.11 187.723 179.326C187.723 180.542 188.771 181.527 190.065 181.527Z" fill="#C0C0CA"/>
<path d="M207.062 179.326C207.062 180.545 206.011 181.527 204.72 181.527C203.428 181.527 202.378 180.54 202.378 179.326C202.378 178.112 203.428 177.125 204.72 177.125C206.011 177.125 207.062 178.112 207.062 179.326Z" fill="#C0C0CA"/>
<path d="M219.374 181.527C220.668 181.527 221.716 180.542 221.716 179.326C221.716 178.11 220.668 177.125 219.374 177.125C218.081 177.125 217.032 178.11 217.032 179.326C217.032 180.542 218.081 181.527 219.374 181.527Z" fill="#C0C0CA"/>
</g>
<g clip-path="url(#clip1_3228_11614)">
<path d="M146.108 193.28C147.401 193.28 148.45 192.295 148.45 191.079C148.45 189.863 147.401 188.878 146.108 188.878C144.814 188.878 143.766 189.863 143.766 191.079C143.766 192.295 144.814 193.28 146.108 193.28Z" fill="#C0C0CA"/>
<path d="M163.11 191.079C163.11 192.298 162.059 193.28 160.768 193.28C159.476 193.28 158.426 192.293 158.426 191.079C158.426 189.865 159.476 188.878 160.768 188.878C162.059 188.878 163.11 189.865 163.11 191.079Z" fill="#C0C0CA"/>
<path d="M175.416 193.28C176.71 193.28 177.758 192.295 177.758 191.079C177.758 189.863 176.71 188.878 175.416 188.878C174.123 188.878 173.074 189.863 173.074 191.079C173.074 192.295 174.123 193.28 175.416 193.28Z" fill="#C0C0CA"/>
<path d="M190.065 193.28C191.358 193.28 192.407 192.295 192.407 191.079C192.407 189.863 191.358 188.878 190.065 188.878C188.771 188.878 187.723 189.863 187.723 191.079C187.723 192.295 188.771 193.28 190.065 193.28Z" fill="#C0C0CA"/>
<path d="M207.062 191.079C207.062 192.298 206.011 193.28 204.72 193.28C203.428 193.28 202.378 192.293 202.378 191.079C202.378 189.865 203.428 188.878 204.72 188.878C206.011 188.878 207.062 189.865 207.062 191.079Z" fill="#C0C0CA"/>
<path d="M219.374 193.28C220.668 193.28 221.716 192.295 221.716 191.079C221.716 189.863 220.668 188.878 219.374 188.878C218.081 188.878 217.032 189.863 217.032 191.079C217.032 192.295 218.081 193.28 219.374 193.28Z" fill="#C0C0CA"/>
</g>
<defs>
<filter id="filter0_d_3228_11614" x="24.416" y="210.371" width="228.34" height="9.5" filterUnits="userSpaceOnUse" color-interpolation-filters="sRGB">
<feFlood flood-opacity="0" result="BackgroundImageFix"/>
<feColorMatrix in="SourceAlpha" type="matrix" values="0 0 0 0 0 0 0 0 0 0 0 0 0 0 0 0 0 0 127 0" result="hardAlpha"/>
<feOffset dy="2"/>
<feGaussianBlur stdDeviation="2"/>
<feComposite in2="hardAlpha" operator="out"/>
<feColorMatrix type="matrix" values="0 0 0 0 0 0 0 0 0 0 0 0 0 0 0 0 0 0 0.15 0"/>
<feBlend mode="normal" in2="BackgroundImageFix" result="effect1_dropShadow_3228_11614"/>
<feBlend mode="normal" in="SourceGraphic" in2="effect1_dropShadow_3228_11614" result="shape"/>
</filter>
<clipPath id="clip0_3228_11614">
<rect width="107.253" height="4.40767" fill="white" transform="translate(143.766 177.125)"/>
</clipPath>
<clipPath id="clip1_3228_11614">
<rect width="107.253" height="4.40767" fill="white" transform="translate(143.766 188.878)"/>
</clipPath>
</defs>
</svg>
