<svg width="280" height="280" viewBox="0 0 280 280" fill="none" xmlns="http://www.w3.org/2000/svg">
<path d="M82.0585 212.753H29.1665L46.4299 197.326L86.0989 181.532L98.22 191.817L101.276 193.175C101.366 193.205 101.45 193.242 101.526 193.286L101.276 193.175C98.6133 192.289 90.0671 197.399 87.9354 199.53C81.2347 206.231 82.0585 211.774 82.0585 212.753Z" fill="#E9EBEF"/>
<path d="M29.1665 213.12C30.6798 210.21 46.3123 176.036 47.1645 170.145C49.1406 156.554 42.4637 149.576 42.3903 139.181C42.2874 125.855 52.4177 109.951 68.1237 104.14C81.5451 99.1739 96.803 100.386 109.247 108.166C117.005 113.014 123.513 123.849 120.377 138.027L125.614 165.465C123.153 165.921 120.685 166.376 118.224 166.832L119.826 184.095C120.12 187.298 118.011 190.912 115.227 192.668C111.899 194.762 107.734 195.041 104.039 193.696L87.0179 186.534" fill="#E9EBEF"/>
<path d="M29.1665 213.12C30.6798 210.21 46.3123 176.036 47.1645 170.145C49.1406 156.554 42.4637 149.576 42.3903 139.181C42.2874 125.855 52.4177 109.951 68.1237 104.14C81.5451 99.1739 96.803 100.386 109.247 108.166C117.005 113.014 123.513 123.849 120.377 138.027L125.614 165.465C123.153 165.921 120.685 166.376 118.224 166.832L119.826 184.095C120.12 187.298 118.011 190.912 115.227 192.668C111.899 194.762 107.734 195.041 104.039 193.696L87.0179 186.534" stroke="#5D5D65" stroke-width="1.5" stroke-miterlimit="10"/>
<path d="M79.4354 150.531C78.2527 147.387 76.3353 146.256 73.7054 146.087C69.7092 145.83 66.9544 150.259 67.0131 153.866C67.1013 159.288 71.3253 165.503 81.0736 168.566" stroke="#5D5D65" stroke-width="1.5" stroke-miterlimit="10"/>
<path d="M102.629 193.109C100.432 193.22 95.6351 193.763 91.0071 197.113C83.132 202.806 82.2064 211.937 82.0815 213.414" stroke="#5D5D65" stroke-width="1.5" stroke-miterlimit="10"/>
<path d="M128.862 149.943C131.714 149.943 134.026 145.625 134.026 140.298C134.026 134.971 131.714 130.652 128.862 130.652C126.009 130.652 123.697 134.971 123.697 140.298C123.697 145.625 126.009 149.943 128.862 149.943Z" fill="#D2D7E5" stroke="#5D5D65" stroke-width="1.5" stroke-miterlimit="10"/>
<path d="M107.08 154.873C111.73 154.873 115.499 149.696 115.499 143.31C115.499 136.924 111.73 131.747 107.08 131.747C102.431 131.747 98.6616 136.924 98.6616 143.31C98.6616 149.696 102.431 154.873 107.08 154.873Z" fill="#D2D7E5" stroke="#5D5D65" stroke-width="1.5" stroke-miterlimit="10"/>
<path d="M63.4673 149.943L65.5462 147.012C67.6766 144 71.1366 142.208 74.8317 142.208H98.6992" stroke="#5D5D65" stroke-width="1.5" stroke-miterlimit="10"/>
<path d="M115.095 139.739C116.366 139.1 117.901 138.512 119.686 138.145C121.214 137.829 122.632 137.741 123.881 137.77" stroke="#5D5D65" stroke-width="1.5" stroke-miterlimit="10"/>
<path d="M158.824 141.251L142.461 148.474L147.506 133.354C137.323 123.71 133.005 110.336 137.392 97.2006C144.497 75.9439 171.681 63.3325 198.128 69.0395C224.568 74.7466 240.249 96.602 233.15 117.864C226.051 139.12 198.866 151.732 172.426 146.025C167.493 144.962 162.932 143.331 158.824 141.251Z" fill="#D2D7E5" stroke="#5D5D65" stroke-width="1.5" stroke-miterlimit="10"/>
<path d="M102.503 171.248C103.649 172.357 104.751 173.129 105.736 173.687C110.76 176.493 115.58 174.995 118.826 173.158" stroke="#5D5D65" stroke-width="1.5" stroke-miterlimit="10"/>
<g filter="url(#filter0_d_3228_26702)">
<path d="M29.1665 213.12H248.006" stroke="#5D5D65" stroke-width="1.5" stroke-miterlimit="10" stroke-linecap="round"/>
</g>
<path d="M185.27 98.1533V116.519" stroke="#5D5D65" stroke-width="1.5" stroke-linecap="round"/>
<path d="M193.223 102.744L177.318 111.927" stroke="#5D5D65" stroke-width="1.5" stroke-linecap="round"/>
<path d="M193.223 111.927L177.318 102.744" stroke="#5D5D65" stroke-width="1.5" stroke-linecap="round"/>
<path d="M159.799 98.1533V116.519" stroke="#5D5D65" stroke-width="1.5" stroke-linecap="round"/>
<path d="M167.75 102.744L151.846 111.927" stroke="#5D5D65" stroke-width="1.5" stroke-linecap="round"/>
<path d="M167.75 111.927L151.846 102.744" stroke="#5D5D65" stroke-width="1.5" stroke-linecap="round"/>
<path d="M210.487 98.1533V116.519" stroke="#5D5D65" stroke-width="1.5" stroke-linecap="round"/>
<path d="M218.441 102.744L202.536 111.927" stroke="#5D5D65" stroke-width="1.5" stroke-linecap="round"/>
<path d="M218.441 111.927L202.536 102.744" stroke="#5D5D65" stroke-width="1.5" stroke-linecap="round"/>
<g clip-path="url(#clip0_3228_26702)">
<path d="M146.108 181.527C147.401 181.527 148.45 180.542 148.45 179.326C148.45 178.11 147.401 177.125 146.108 177.125C144.815 177.125 143.766 178.11 143.766 179.326C143.766 180.542 144.815 181.527 146.108 181.527Z" fill="#5D5D65"/>
<path d="M163.11 179.326C163.11 180.545 162.06 181.527 160.768 181.527C159.477 181.527 158.426 180.54 158.426 179.326C158.426 178.112 159.477 177.125 160.768 177.125C162.06 177.125 163.11 178.112 163.11 179.326Z" fill="#5D5D65"/>
<path d="M175.417 181.527C176.71 181.527 177.759 180.542 177.759 179.326C177.759 178.11 176.71 177.125 175.417 177.125C174.123 177.125 173.075 178.11 173.075 179.326C173.075 180.542 174.123 181.527 175.417 181.527Z" fill="#5D5D65"/>
<path d="M190.066 181.527C191.359 181.527 192.408 180.542 192.408 179.326C192.408 178.11 191.359 177.125 190.066 177.125C188.772 177.125 187.724 178.11 187.724 179.326C187.724 180.542 188.772 181.527 190.066 181.527Z" fill="#5D5D65"/>
<path d="M207.062 179.326C207.062 180.545 206.011 181.527 204.72 181.527C203.428 181.527 202.378 180.54 202.378 179.326C202.378 178.112 203.428 177.125 204.72 177.125C206.011 177.125 207.062 178.112 207.062 179.326Z" fill="#5D5D65"/>
<path d="M219.374 181.527C220.668 181.527 221.716 180.542 221.716 179.326C221.716 178.11 220.668 177.125 219.374 177.125C218.081 177.125 217.032 178.11 217.032 179.326C217.032 180.542 218.081 181.527 219.374 181.527Z" fill="#5D5D65"/>
</g>
<g clip-path="url(#clip1_3228_26702)">
<path d="M146.108 193.28C147.401 193.28 148.45 192.295 148.45 191.079C148.45 189.863 147.401 188.878 146.108 188.878C144.815 188.878 143.766 189.863 143.766 191.079C143.766 192.295 144.815 193.28 146.108 193.28Z" fill="#5D5D65"/>
<path d="M163.11 191.079C163.11 192.298 162.06 193.28 160.768 193.28C159.477 193.28 158.426 192.293 158.426 191.079C158.426 189.865 159.477 188.878 160.768 188.878C162.06 188.878 163.11 189.865 163.11 191.079Z" fill="#5D5D65"/>
<path d="M175.417 193.28C176.71 193.28 177.759 192.295 177.759 191.079C177.759 189.863 176.71 188.878 175.417 188.878C174.123 188.878 173.075 189.863 173.075 191.079C173.075 192.295 174.123 193.28 175.417 193.28Z" fill="#5D5D65"/>
<path d="M190.066 193.28C191.359 193.28 192.408 192.295 192.408 191.079C192.408 189.863 191.359 188.878 190.066 188.878C188.772 188.878 187.724 189.863 187.724 191.079C187.724 192.295 188.772 193.28 190.066 193.28Z" fill="#5D5D65"/>
<path d="M207.062 191.079C207.062 192.298 206.011 193.28 204.72 193.28C203.428 193.28 202.378 192.293 202.378 191.079C202.378 189.865 203.428 188.878 204.72 188.878C206.011 188.878 207.062 189.865 207.062 191.079Z" fill="#5D5D65"/>
<path d="M219.374 193.28C220.668 193.28 221.716 192.295 221.716 191.079C221.716 189.863 220.668 188.878 219.374 188.878C218.081 188.878 217.032 189.863 217.032 191.079C217.032 192.295 218.081 193.28 219.374 193.28Z" fill="#5D5D65"/>
</g>
<defs>
<filter id="filter0_d_3228_26702" x="24.4165" y="210.37" width="228.34" height="9.5" filterUnits="userSpaceOnUse" color-interpolation-filters="sRGB">
<feFlood flood-opacity="0" result="BackgroundImageFix"/>
<feColorMatrix in="SourceAlpha" type="matrix" values="0 0 0 0 0 0 0 0 0 0 0 0 0 0 0 0 0 0 127 0" result="hardAlpha"/>
<feOffset dy="2"/>
<feGaussianBlur stdDeviation="2"/>
<feComposite in2="hardAlpha" operator="out"/>
<feColorMatrix type="matrix" values="0 0 0 0 0 0 0 0 0 0 0 0 0 0 0 0 0 0 0.15 0"/>
<feBlend mode="normal" in2="BackgroundImageFix" result="effect1_dropShadow_3228_26702"/>
<feBlend mode="normal" in="SourceGraphic" in2="effect1_dropShadow_3228_26702" result="shape"/>
</filter>
<clipPath id="clip0_3228_26702">
<rect width="107.253" height="4.40767" fill="white" transform="translate(143.766 177.125)"/>
</clipPath>
<clipPath id="clip1_3228_26702">
<rect width="107.253" height="4.40767" fill="white" transform="translate(143.766 188.878)"/>
</clipPath>
</defs>
</svg>
