<svg width="280" height="280" viewBox="0 0 280 280" fill="none" xmlns="http://www.w3.org/2000/svg">
<g clip-path="url(#clip0_3228_26699)">
<path d="M126.101 181.892L140.563 161.307L125.332 157.675L100.048 185.347L103.611 156.042L121.948 136.426L95.0948 103.972L55.738 141.931L46.9396 196.673L126.101 181.892Z" fill="#D2D7E5"/>
<path d="M110.848 147.803L122.575 177.274C124.241 181.462 128.985 183.505 133.173 181.839L251.34 134.817C255.528 133.151 257.571 128.407 255.904 124.219L222.932 41.3581C221.266 37.1704 216.522 35.1274 212.334 36.7938L94.1669 83.8154C89.9792 85.4818 87.9362 90.2253 89.6026 94.413L90.1888 95.8862" fill="#D2D7E5"/>
<path d="M110.848 147.803L122.575 177.274C124.241 181.462 128.985 183.505 133.173 181.839L251.34 134.817C255.528 133.151 257.571 128.407 255.904 124.219L222.932 41.3581C221.266 37.1704 216.522 35.1274 212.334 36.7938L94.1669 83.8154C89.9792 85.4818 87.9362 90.2253 89.6026 94.413L90.1888 95.8862" stroke="#5D5D65" stroke-width="1.5" stroke-miterlimit="10"/>
<path d="M114.561 99.5811L152.863 84.3397C154.576 83.658 156.605 84.2025 157.571 85.764C158.274 86.9033 158.32 88.1985 157.851 89.286C157.468 90.1769 156.745 90.9149 155.777 91.3002L127.24 102.656" fill="#D2D7E5"/>
<path d="M114.561 99.5811L152.863 84.3397C154.576 83.658 156.605 84.2025 157.571 85.764C158.274 86.9033 158.32 88.1985 157.851 89.286C157.468 90.1769 156.745 90.9149 155.777 91.3002L127.24 102.656" stroke="#5D5D65" stroke-width="1.5" stroke-miterlimit="10"/>
<path d="M46.6421 188.988L23.6509 198.137L42.1855 244.715L83.2393 228.992C95.7244 224.206 106.229 215.358 113.052 203.861L126.098 181.884" fill="#D2D7E5"/>
<path d="M46.6421 188.988L23.6509 198.137L42.1855 244.715L83.2393 228.992C95.7244 224.206 106.229 215.358 113.052 203.861L126.098 181.884" stroke="#5D5D65" stroke-width="1.5" stroke-miterlimit="10"/>
<path d="M109.263 112.475L124.332 98.0904C124.637 97.7965 125.142 97.8834 125.33 98.2592C128.784 105.11 127.426 113.406 121.958 118.793L90.3943 149.932" fill="#D2D7E5"/>
<path d="M109.263 112.475L124.332 98.0904C124.637 97.7965 125.142 97.8834 125.33 98.2592C128.784 105.11 127.426 113.406 121.958 118.793L90.3943 149.932" stroke="#5D5D65" stroke-width="1.5" stroke-miterlimit="10"/>
<path d="M96.1121 106.338L110.386 92.6049C111.066 91.9511 112.177 92.1416 112.614 92.9744C115.993 99.4908 114.622 107.466 109.262 112.475L79.8769 139.957" fill="#D2D7E5"/>
<path d="M96.1121 106.338L110.386 92.6049C111.066 91.9511 112.177 92.1416 112.614 92.9744C115.993 99.4908 114.622 107.466 109.262 112.475L79.8769 139.957" stroke="#5D5D65" stroke-width="1.5" stroke-miterlimit="10"/>
<path d="M46.4679 195.489L47.9021 142.767C48.09 135.771 51.2379 129.179 56.5539 124.638L95.0349 91.7529C95.5004 91.3567 96.2163 91.4937 96.4982 92.0334C99.5743 97.8364 98.3821 104.983 93.5939 109.477L68.0354 133.471" fill="#D2D7E5"/>
<path d="M46.4679 195.489L47.9021 142.767C48.09 135.771 51.2379 129.179 56.5539 124.638L95.0349 91.7529C95.5004 91.3567 96.2163 91.4937 96.4982 92.0334C99.5743 97.8364 98.3821 104.983 93.5939 109.477L68.0354 133.471" stroke="#5D5D65" stroke-width="1.5" stroke-miterlimit="10"/>
<path d="M123.413 117.294L132.425 108.55C132.703 108.286 133.161 108.401 133.27 108.77C135.548 115.964 133.827 123.83 128.757 129.423L128.409 129.801L108.742 149.955C105.142 153.459 102.939 157.969 102.522 162.679L100.647 184.036L117.911 165.48" stroke="#5D5D65" stroke-width="1.5" stroke-miterlimit="10"/>
<path d="M113.547 95.1525L176.231 70.2092C177.199 69.8238 177.922 69.0858 178.305 68.1949C178.815 66.995 178.725 65.5161 177.765 64.3069C176.725 62.995 174.89 62.6229 173.342 63.2388L104.509 90.629C103.541 91.0144 102.818 91.7524 102.435 92.6433C102.048 93.5258 102.008 94.5579 102.393 95.5262C102.861 96.7014 103.852 97.5054 104.991 97.7903" stroke="#5D5D65" stroke-width="1.5" stroke-miterlimit="10"/>
<path d="M111.464 110.371C111.35 110.397 111.229 110.407 111.117 110.413" stroke="#5D5D65" stroke-width="1.5" stroke-miterlimit="10"/>
<path d="M243.027 121.539L199.66 138.796C197.722 139.567 196.775 141.762 197.546 143.697C198.316 145.633 200.511 146.577 202.449 145.806L245.817 128.549C247.755 127.778 248.701 125.584 247.931 123.648C247.161 121.712 244.965 120.768 243.027 121.539Z" stroke="#5D5D65" stroke-width="1.5" stroke-miterlimit="10"/>
<path d="M134.068 113.619C132.076 115.6 129.342 118.414 128.179 119.106C125.896 120.475 123.589 118.22 123.195 117.687" stroke="#5D5D65" stroke-width="1.5" stroke-miterlimit="10" stroke-linecap="round"/>
<path d="M126.694 102.728C124.702 104.71 121.968 107.523 120.806 108.216C118.522 109.585 116.216 107.329 115.821 106.796" stroke="#5D5D65" stroke-width="1.5" stroke-miterlimit="10" stroke-linecap="round"/>
<path d="M100.913 101.877C101.352 102.546 103.973 105.328 106.603 103.601C107.933 102.727 111.105 99.1829 113.406 96.6762" stroke="#5D5D65" stroke-width="1.5" stroke-miterlimit="10" stroke-linecap="round"/>
<path d="M97.3894 95.6957C95.0858 98.1942 91.9218 101.735 90.5871 102.621C87.9574 104.348 85.3357 101.566 84.8969 100.897" stroke="#5D5D65" stroke-width="1.5" stroke-miterlimit="10" stroke-linecap="round"/>
</g>
<defs>
<clipPath id="clip0_3228_26699">
<rect width="280" height="280" fill="white"/>
</clipPath>
</defs>
</svg>
