<svg width="280" height="280" viewBox="0 0 280 280" fill="none" xmlns="http://www.w3.org/2000/svg">
<path d="M225.211 100.334H105.683C104.683 100.334 104.016 101.358 104.409 102.262C108.457 111.619 117.672 117.678 127.862 117.678H151.506V175.22C151.506 176.065 150.47 176.482 149.887 175.863L138.232 163.602C130.112 155.055 118.291 151.044 106.647 152.889C105.981 152.996 105.636 153.746 106.005 154.317L140.208 208.182C151.542 226.025 171.209 236.834 192.353 236.834H255.962V174.423H226.115" fill="#D2D7E5"/>
<path d="M225.211 100.334H105.683C104.683 100.334 104.016 101.358 104.409 102.262C108.457 111.619 117.672 117.678 127.862 117.678H151.506V175.22C151.506 176.065 150.47 176.482 149.887 175.863L138.232 163.602C130.112 155.055 118.291 151.044 106.647 152.889C105.981 152.996 105.636 153.746 106.005 154.317L140.208 208.182C151.542 226.025 171.209 236.834 192.353 236.834H255.962V174.423H226.115" stroke="#5D5D65" stroke-width="1.5" stroke-miterlimit="10"/>
<path d="M225.628 179.667V62.2987C225.628 61.195 224.567 60.4118 223.519 60.7441C214.35 63.6872 208.128 72.2554 208.128 81.9511V123.677" fill="#D2D7E5"/>
<path d="M225.628 179.667V62.2987C225.628 61.195 224.567 60.4118 223.519 60.7441C214.35 63.6872 208.128 72.2554 208.128 81.9511V123.677" stroke="#5D5D65" stroke-width="1.5" stroke-miterlimit="10"/>
<path d="M189.22 131.834V94.8226L180.476 75.4906C175.758 65.058 177.354 52.7928 184.572 43.9773C185.617 42.7076 187.589 42.9711 188.27 44.4803L208.128 88.3307V124.443" fill="#D2D7E5"/>
<path d="M189.22 131.834V94.8226L180.476 75.4906C175.758 65.058 177.354 52.7928 184.572 43.9773C185.617 42.7076 187.589 42.9711 188.27 44.4803L208.128 88.3307V124.443" stroke="#5D5D65" stroke-width="1.5" stroke-miterlimit="10"/>
<path d="M169.657 138.834V104.558L149.216 85.2534C142.857 79.2574 141.018 69.8387 144.613 61.8442C145.159 60.6354 146.713 60.2764 147.721 61.15L188.295 95.9646V131.82" fill="#D2D7E5"/>
<path d="M169.657 138.834V104.558L149.216 85.2534C142.857 79.2574 141.018 69.8387 144.613 61.8442C145.159 60.6354 146.713 60.2764 147.721 61.15L188.295 95.9646V131.82" stroke="#5D5D65" stroke-width="1.5" stroke-miterlimit="10"/>
<path d="M220.226 63C219.986 67.3155 219.565 73.3414 219.952 75.335C220.716 79.2654 224.637 79.0162 225.628 79.3333" stroke="#5D5D65" stroke-width="1.5" stroke-miterlimit="10" stroke-linecap="round"/>
<path d="M182.461 46.667C183.846 51.2179 185.679 57.6091 186.846 59.524C189.141 63.3164 194.295 61.4264 195.295 60.8669" stroke="#5D5D65" stroke-width="1.5" stroke-miterlimit="10" stroke-linecap="round"/>
<path d="M143.5 65.917C146.941 69.0816 150.979 72.9946 152.909 74.0454C156.719 76.1226 159.305 72.7156 159.833 71.7503" stroke="#5D5D65" stroke-width="1.5" stroke-miterlimit="10" stroke-linecap="round"/>
<path d="M106.628 105.986C111.36 106.108 117.98 106.351 120.153 105.931C124.438 105.09 124.041 101.54 124.128 100.334" stroke="#5D5D65" stroke-width="1.5" stroke-miterlimit="10" stroke-linecap="round"/>
<path d="M112 152.834C115.158 156.346 118.946 160.034 119.982 162C122.017 165.883 117.653 168.78 116.667 169.751" stroke="#5D5D65" stroke-width="1.5" stroke-miterlimit="10" stroke-linecap="round"/>
<path d="M37.8215 150.653L38.6333 137.618L28.0214 144.756L24.5 138.68L36.031 133.046L24.5 127.34L28.0214 121.372L38.6333 128.474L37.8215 115.403H44.8882L43.8974 128.474L54.7719 121.372L58.2933 127.34L46.7264 133.046L58.2933 138.68L54.7719 144.756L43.8974 137.618L44.8882 150.653H37.8215Z" fill="#E9EBEF" stroke="#5D5D65" stroke-width="1.5" stroke-miterlimit="10"/>
<path d="M73.1428 150.653L73.9545 137.618L63.3427 144.756L59.8213 138.68L71.3523 133.046L59.8213 127.34L63.3427 121.372L73.9545 128.474L73.1428 115.403H80.2095L79.2187 128.474L90.0932 121.372L93.6146 127.34L82.0477 133.046L93.6146 138.68L90.0932 144.756L79.2187 137.618L80.2095 150.653H73.1428Z" fill="#E9EBEF" stroke="#5D5D65" stroke-width="1.5" stroke-miterlimit="10"/>
<path d="M108.536 150.653L109.348 137.618L98.7357 144.756L95.2144 138.68L106.745 133.046L95.2144 127.34L98.7357 121.372L109.348 128.474L108.536 115.403H115.603L114.612 128.474L125.486 121.372L129.008 127.34L117.441 133.046L129.008 138.68L125.486 144.756L114.612 137.618L115.603 150.653H108.536Z" fill="#E9EBEF" stroke="#5D5D65" stroke-width="1.5" stroke-miterlimit="10"/>
</svg>
