<svg width="280" height="280" viewBox="0 0 280 280" fill="none" xmlns="http://www.w3.org/2000/svg">
<path d="M193.553 125.785C205.904 112.753 222.978 101.912 232.207 105.802C234.037 106.564 237.468 108.509 240.333 114.018C237.212 116.834 194.455 152.351 191.333 155.167" fill="#D2D7E5"/>
<path d="M193.553 125.785C205.904 112.753 222.978 101.912 232.207 105.802C234.037 106.564 237.468 108.509 240.333 114.018C237.212 116.834 194.455 152.351 191.333 155.167" stroke="#5D5D65" stroke-width="1.5" stroke-miterlimit="10" stroke-linecap="round"/>
<path d="M177.333 155.261C189.565 141.017 217.274 116.686 226.435 120.584C228.251 121.348 231.656 123.297 234.5 128.817C220.586 141.494 206.671 154.157 192.757 166.834" fill="#D2D7E5"/>
<path d="M177.333 155.261C189.565 141.017 217.274 116.686 226.435 120.584C228.251 121.348 231.656 123.297 234.5 128.817C220.586 141.494 206.671 154.157 192.757 166.834" stroke="#5D5D65" stroke-width="1.5" stroke-miterlimit="10" stroke-linecap="round"/>
<path d="M176.654 155.167H176.668L192.08 139.423C192.351 139.136 192.5 138.767 192.5 138.371V75.4752C192.5 75.0792 192.351 74.7105 192.08 74.4238L162.097 43.6176C161.812 43.3309 161.433 43.167 161.026 43.167H78.491C77.6642 43.167 77 43.8361 77 44.6691V149.719" fill="#E9EBEF"/>
<path d="M176.654 155.167H176.668L192.08 139.423C192.351 139.136 192.5 138.767 192.5 138.371V75.4752C192.5 75.0792 192.351 74.7105 192.08 74.4238L162.097 43.6176C161.812 43.3309 161.433 43.167 161.026 43.167H78.491C77.6642 43.167 77 43.8361 77 44.6691V149.719" stroke="#5D5D65" stroke-width="1.5" stroke-miterlimit="10"/>
<path d="M133.556 178.353H196.529C197.683 178.353 198.548 177.285 198.287 176.175C195.939 166.011 186.217 157.751 171.703 152.354C159.715 147.874 144.459 145.34 127.391 145.244C119.962 145.203 98.1703 142.532 75.9527 149.039C63.6355 152.628 51.1947 159.039 40.9922 170.285C40.443 170.888 39.9074 171.504 39.3994 172.107C28.8124 184.613 23.3472 200.654 23.3335 217.024V235.667H96.5774V199.517H86.32H147.37C153 199.517 158.438 197.449 162.64 193.709C168.393 188.586 174.16 183.463 179.914 178.339" fill="#D2D7E5"/>
<path d="M133.556 178.353H196.529C197.683 178.353 198.548 177.285 198.287 176.175C195.939 166.011 186.217 157.751 171.703 152.354C159.715 147.874 144.459 145.34 127.391 145.244C119.962 145.203 98.1703 142.532 75.9527 149.039C63.6355 152.628 51.1947 159.039 40.9922 170.285C40.443 170.888 39.9074 171.504 39.3994 172.107C28.8124 184.613 23.3472 200.654 23.3335 217.024V235.667H96.5774V199.517H86.32H147.37C153 199.517 158.438 197.449 162.64 193.709C168.393 188.586 174.16 183.463 179.914 178.339" stroke="#5D5D65" stroke-width="1.5" stroke-miterlimit="10" stroke-linecap="round"/>
<path d="M231 123.667C226.868 126.72 221.021 130.929 219.495 132.785C216.47 136.457 219.495 141.191 219.967 142.334" stroke="#5D5D65" stroke-width="1.5" stroke-miterlimit="10" stroke-linecap="round"/>
<path d="M196 171.728C190.483 171.702 184.443 171.342 180.468 171.582C175.474 171.875 174.343 176.215 173.833 177.333" stroke="#5D5D65" stroke-width="1.5" stroke-miterlimit="10" stroke-linecap="round"/>
<path d="M222.833 119C223.031 118.565 223.299 118.13 223.651 117.722C225.245 115.831 231.351 111.587 235.667 108.5" stroke="#5D5D65" stroke-width="1.5" stroke-miterlimit="10" stroke-linecap="round"/>
<path d="M223.41 163.334C223.41 171.579 216.883 173.823 213.5 174.417C216.883 175.026 223.41 177.256 223.41 185.501C223.41 177.256 229.95 175.012 233.333 174.417C229.95 173.809 223.41 171.579 223.41 163.334Z" fill="#D2D7E5" stroke="#5D5D65" stroke-width="1.5" stroke-miterlimit="10"/>
<path d="M241.5 180.834C241.5 194.285 231.508 197.924 226.333 198.917C231.508 199.897 241.5 203.55 241.5 217.001C241.5 203.55 251.493 199.911 256.667 198.917C251.493 197.938 241.5 194.285 241.5 180.834Z" fill="#D2D7E5" stroke="#5D5D65" stroke-width="1.5" stroke-miterlimit="10"/>
<path d="M152.834 98.5979C150.379 83.8468 139.611 73.4721 130.545 73.5001C118.832 73.528 109.217 86.4475 109.683 101.618C110.122 115.502 119.778 129.596 122.206 131.833" stroke="#5D5D65" stroke-width="1.5" stroke-miterlimit="10" stroke-linecap="round"/>
<path d="M130.788 96.834C130.653 98.02 129.616 108.261 137.253 116.005C144.567 123.428 153.928 122.535 155.167 122.395" stroke="#5D5D65" stroke-width="1.5" stroke-miterlimit="10" stroke-linecap="round"/>
<path d="M144.359 134.167C137.196 130.145 121.555 119.415 119.856 104.551C119.172 98.4548 120.678 91.0785 125.376 87.1399C129.868 83.6883 135.799 86.5692 138.853 90.9672C140.963 93.862 141.456 97.5641 141.99 100.849C142.579 108.42 152.536 113.472 158.289 108.267C164.301 102.143 164.274 91.329 161.658 83.4517C158.138 73.7512 150.071 66.6532 140.757 63.5774C108.735 53.7238 91.3951 87.4878 102.558 118.371" stroke="#5D5D65" stroke-width="1.5" stroke-miterlimit="10" stroke-linecap="round"/>
</svg>
