<svg width="280" height="280" viewBox="0 0 280 280" fill="none" xmlns="http://www.w3.org/2000/svg">
<path d="M193.553 125.785C205.904 112.753 222.977 101.912 232.207 105.802C234.036 106.564 237.467 108.509 240.333 114.018C237.212 116.834 194.454 152.351 191.333 155.167" fill="#36415C"/>
<path d="M193.553 125.785C205.904 112.753 222.977 101.912 232.207 105.802C234.036 106.564 237.467 108.509 240.333 114.018C237.212 116.834 194.454 152.351 191.333 155.167" stroke="#C0C0CA" stroke-width="1.5" stroke-miterlimit="10" stroke-linecap="round"/>
<path d="M177.333 155.261C189.565 141.017 217.274 116.686 226.434 120.584C228.25 121.348 231.655 123.297 234.5 128.817C220.585 141.494 206.671 154.157 192.756 166.834" fill="#36415C"/>
<path d="M177.333 155.261C189.565 141.017 217.274 116.686 226.434 120.584C228.25 121.348 231.655 123.297 234.5 128.817C220.585 141.494 206.671 154.157 192.756 166.834" stroke="#C0C0CA" stroke-width="1.5" stroke-miterlimit="10" stroke-linecap="round"/>
<path d="M176.654 155.167H176.668L192.08 139.423C192.351 139.136 192.5 138.767 192.5 138.371V75.4752C192.5 75.0792 192.351 74.7105 192.08 74.4238L162.097 43.6176C161.812 43.3309 161.433 43.167 161.026 43.167H78.491C77.6642 43.167 77 43.8361 77 44.6691V149.719" fill="#253151"/>
<path d="M176.654 155.167H176.668L192.08 139.423C192.351 139.136 192.5 138.767 192.5 138.371V75.4752C192.5 75.0792 192.351 74.7105 192.08 74.4238L162.097 43.6176C161.812 43.3309 161.433 43.167 161.026 43.167H78.491C77.6642 43.167 77 43.8361 77 44.6691V149.719" stroke="#C0C0CA" stroke-width="1.5" stroke-miterlimit="10"/>
<path d="M133.556 178.353H196.529C197.682 178.353 198.547 177.285 198.286 176.175C195.938 166.011 186.216 157.751 171.702 152.354C159.714 147.874 144.459 145.34 127.39 145.244C119.962 145.203 98.1698 142.532 75.9522 149.039C63.635 152.628 51.1943 159.039 40.9917 170.285C40.4425 170.888 39.9069 171.504 39.3989 172.107C28.8119 184.613 23.3467 200.654 23.333 217.024V235.667H96.5769V199.517H86.3195H147.37C153 199.517 158.437 197.449 162.639 193.709C168.393 188.586 174.16 183.463 179.913 178.339" fill="#36415C"/>
<path d="M133.556 178.353H196.529C197.682 178.353 198.547 177.285 198.286 176.175C195.938 166.011 186.216 157.751 171.702 152.354C159.714 147.874 144.459 145.34 127.39 145.244C119.962 145.203 98.1698 142.532 75.9522 149.039C63.635 152.628 51.1943 159.039 40.9917 170.285C40.4425 170.888 39.9069 171.504 39.3989 172.107C28.8119 184.613 23.3467 200.654 23.333 217.024V235.667H96.5769V199.517H86.3195H147.37C153 199.517 158.437 197.449 162.639 193.709C168.393 188.586 174.16 183.463 179.914 178.339" stroke="#C0C0CA" stroke-width="1.5" stroke-miterlimit="10" stroke-linecap="round"/>
<path d="M230.999 123.667C226.867 126.72 221.02 130.929 219.494 132.785C216.469 136.457 219.494 141.191 219.966 142.334" stroke="#C0C0CA" stroke-width="1.5" stroke-miterlimit="10" stroke-linecap="round"/>
<path d="M196 171.728C190.483 171.702 184.442 171.342 180.467 171.582C175.474 171.875 174.342 176.215 173.833 177.333" stroke="#C0C0CA" stroke-width="1.5" stroke-miterlimit="10" stroke-linecap="round"/>
<path d="M222.833 119C223.03 118.565 223.298 118.13 223.651 117.722C225.245 115.831 231.351 111.587 235.666 108.5" stroke="#C0C0CA" stroke-width="1.5" stroke-miterlimit="10" stroke-linecap="round"/>
<path d="M223.41 163.334C223.41 171.579 216.883 173.823 213.5 174.417C216.883 175.026 223.41 177.256 223.41 185.501C223.41 177.256 229.95 175.012 233.333 174.417C229.95 173.809 223.41 171.579 223.41 163.334Z" fill="#36415C" stroke="#C0C0CA" stroke-width="1.5" stroke-miterlimit="10"/>
<path d="M241.5 180.834C241.5 194.285 231.507 197.924 226.333 198.917C231.507 199.897 241.5 203.55 241.5 217.001C241.5 203.55 251.492 199.911 256.666 198.917C251.492 197.938 241.5 194.285 241.5 180.834Z" fill="#36415C" stroke="#C0C0CA" stroke-width="1.5" stroke-miterlimit="10"/>
<path d="M152.833 98.5979C150.378 83.8468 139.611 73.4721 130.544 73.5001C118.831 73.528 109.216 86.4475 109.682 101.618C110.121 115.502 119.777 129.596 122.205 131.833" stroke="#C0C0CA" stroke-width="1.5" stroke-miterlimit="10" stroke-linecap="round"/>
<path d="M130.787 96.834C130.652 98.02 129.615 108.261 137.252 116.005C144.566 123.428 153.927 122.535 155.166 122.395" stroke="#C0C0CA" stroke-width="1.5" stroke-miterlimit="10" stroke-linecap="round"/>
<path d="M144.358 134.167C137.195 130.145 121.554 119.415 119.855 104.551C119.171 98.4548 120.677 91.0785 125.375 87.1399C129.867 83.6883 135.798 86.5692 138.852 90.9672C140.962 93.862 141.455 97.5641 141.989 100.849C142.578 108.42 152.535 113.472 158.288 108.267C164.3 102.143 164.273 91.329 161.657 83.4517C158.137 73.7512 150.07 66.6532 140.756 63.5774C108.734 53.7238 91.3941 87.4878 102.557 118.371" stroke="#C0C0CA" stroke-width="1.5" stroke-miterlimit="10" stroke-linecap="round"/>
</svg>
