<svg width="280" height="280" viewBox="0 0 280 280" fill="none" xmlns="http://www.w3.org/2000/svg">
<path d="M158.67 123.069L177.914 142.586C178.093 142.764 178.188 143.006 178.188 143.254V183.093C178.188 183.341 178.087 183.584 177.914 183.761L158.676 203.154C158.498 203.338 158.248 203.438 157.992 203.438H105.026C104.497 203.438 104.069 203.013 104.069 202.486V123.731C104.069 123.205 104.497 122.779 105.026 122.779H157.992C158.248 122.779 158.498 122.88 158.676 123.063L158.67 123.069Z" fill="#E9EBEF" stroke="#5D5D65" stroke-width="1.5" stroke-miterlimit="10"/>
<path d="M109.591 90.2996C109.074 89.2634 109.526 87.8563 109.496 86.6552C109.591 83.8351 108.865 80.5675 106.967 78.6952C104.646 76.0812 100.117 76.5757 98.3794 79.5902C97.1534 81.5448 97.2725 84.153 97.1118 86.5492C96.9392 89.8286 96.7666 93.1021 96.594 96.3814C96.4334 99.4076 96.1715 102.522 97.1713 105.124C98.5579 108.839 101.498 112.531 104.932 114.497C111.032 118.13 120.333 117.418 129.278 116.917C137.913 116.493 145.15 114.315 138.585 104.936C134.693 99.5136 127.933 95.5159 121.642 93.5436C118.113 92.3838 114.68 91.6949 111.871 91.271C111.079 91.118 110.097 91.0238 109.621 90.3702L109.585 90.3114L109.591 90.2996Z" fill="#D2D7E5" stroke="#5D5D65" stroke-width="1.5" stroke-miterlimit="10"/>
<path d="M109.768 91.1699C107.541 91.4426 105.996 93.1496 105.38 95.3663C104.282 99.3434 107.541 103.048 109.146 104.873C116.558 113.29 133.083 112.241 141.128 111.156" stroke="#5D5D65" stroke-width="1.5" stroke-miterlimit="10"/>
<path d="M97.0077 86.8103C93.6585 85.7296 91.9383 84.3755 92.0881 83.3415C92.238 82.3076 94.3101 81.5338 97.529 81.3604" fill="#D2D7E5"/>
<path d="M97.0077 86.8103C93.6585 85.7296 91.9383 84.3755 92.0881 83.3415C92.238 82.3076 94.3101 81.5338 97.529 81.3604" stroke="#5D5D65" stroke-width="1.5" stroke-miterlimit="10"/>
<path d="M100.799 82.4502C100.836 82.4502 101.202 82.4502 101.835 82.4502C102.302 82.4502 102.743 82.4502 102.979 82.4502" stroke="#5D5D65" stroke-width="1.5" stroke-miterlimit="10" stroke-linecap="round"/>
<path d="M109.519 122.779V117.329" stroke="#5D5D65" stroke-width="1.5" stroke-miterlimit="10"/>
<path d="M112.789 122.779V117.329" stroke="#5D5D65" stroke-width="1.5" stroke-miterlimit="10"/>
<path d="M177.643 121.689C182.76 121.689 186.908 117.541 186.908 112.424C186.908 107.307 182.76 103.159 177.643 103.159C172.526 103.159 168.378 107.307 168.378 112.424C168.378 117.541 172.526 121.689 177.643 121.689Z" fill="#D2D7E5" stroke="#5D5D65" stroke-width="1.5" stroke-miterlimit="10"/>
<path d="M183.731 123.128L185.917 127.7" stroke="#5D5D65" stroke-width="1.5" stroke-miterlimit="10" stroke-linecap="round"/>
<path d="M173.039 123.103L170.83 127.663" stroke="#5D5D65" stroke-width="1.5" stroke-miterlimit="10" stroke-linecap="round"/>
<path d="M166.392 114.719L161.448 115.835" stroke="#5D5D65" stroke-width="1.5" stroke-miterlimit="10" stroke-linecap="round"/>
<path d="M168.803 104.304L164.845 101.132" stroke="#5D5D65" stroke-width="1.5" stroke-miterlimit="10" stroke-linecap="round"/>
<path d="M178.451 99.6907L178.463 94.6221" stroke="#5D5D65" stroke-width="1.5" stroke-miterlimit="10" stroke-linecap="round"/>
<path d="M188.075 104.352L192.045 101.203" stroke="#5D5D65" stroke-width="1.5" stroke-miterlimit="10" stroke-linecap="round"/>
<path d="M190.426 114.786L195.359 115.926" stroke="#5D5D65" stroke-width="1.5" stroke-miterlimit="10" stroke-linecap="round"/>
<path d="M24.5 203.438H256.667" stroke="#5D5D65" stroke-width="1.5" stroke-miterlimit="10"/>
<path d="M94.2592 203.438C93.4954 196.173 93.2134 171.595 75.1113 151.45C67.9139 143.446 62.72 140.294 60.4697 139.129" stroke="#5D5D65" stroke-width="1.5" stroke-miterlimit="10"/>
<path d="M94.2588 203.438C93.8271 198.58 93.1587 191.308 89.0244 183.539C81.288 169 68.7076 162.201 63.7393 159.839" stroke="#5D5D65" stroke-width="1.5" stroke-miterlimit="10"/>
<path d="M88.809 174.008C87.7413 168.688 86.5383 161.566 86.0021 154.635C85.3933 146.768 85.4513 139.692 85.7943 133.679" stroke="#5D5D65" stroke-width="1.5" stroke-miterlimit="10"/>
<path d="M95.2214 203.438C94.3167 195.304 92.828 184.486 93.2392 172.981C93.5477 164.316 94.3619 157.662 95.3489 151.119" stroke="#5D5D65" stroke-width="1.5" stroke-miterlimit="10"/>
<path d="M203.257 143.489V154.284H192.985V162.019H184.728V143.489H203.257Z" fill="#D2D7E5" stroke="#5D5D65" stroke-width="1.5" stroke-miterlimit="10"/>
<path d="M203.258 154.389H193.448V162.019H203.258V154.389Z" fill="#E9EBEF" stroke="#5D5D65" stroke-width="1.5" stroke-miterlimit="10"/>
<path d="M211.977 154.389V172.918H193.448V162.124H203.72V154.389H211.977Z" fill="#D2D7E5" stroke="#5D5D65" stroke-width="1.5" stroke-miterlimit="10"/>
<path d="M153.118 166.599C151.568 157.501 144.768 151.101 139.046 151.119C131.649 151.143 125.578 159.104 125.879 168.456C126.152 177.024 132.253 185.71 133.785 187.089" stroke="#5D5D65" stroke-width="1.5" stroke-miterlimit="10" stroke-linecap="round"/>
<path d="M139.024 165.289C138.938 165.992 138.296 172.085 143.048 176.687C147.605 181.103 153.434 180.57 154.208 180.485" stroke="#5D5D65" stroke-width="1.5" stroke-miterlimit="10" stroke-linecap="round"/>
<path d="M147.732 188.179C143.227 185.693 133.405 179.065 132.329 169.881C131.899 166.121 132.84 161.555 135.799 159.128C138.628 157.001 142.351 158.77 144.268 161.496C145.591 163.282 145.903 165.574 146.238 167.595C146.615 172.278 152.867 175.393 156.484 172.179C160.266 168.4 160.248 161.719 158.607 156.842C156.396 150.849 151.32 146.466 145.468 144.568C125.347 138.474 114.443 159.346 121.46 178.425" stroke="#5D5D65" stroke-width="1.5" stroke-miterlimit="10" stroke-linecap="round"/>
<path d="M97.4876 144.904L97.4819 144.902C96.6384 144.672 95.7679 145.169 95.5376 146.013L94.6554 149.244C94.4252 150.088 94.9223 150.958 95.7658 151.188L95.7715 151.19C96.615 151.42 97.4855 150.923 97.7158 150.079L98.598 146.848C98.8283 146.005 98.3311 145.134 97.4876 144.904Z" fill="#D2D7E5" stroke="#5D5D65" stroke-width="1.5" stroke-miterlimit="10"/>
<path d="M60.2141 155.651C59.4502 155.253 58.5084 155.55 58.1105 156.314C57.7127 157.078 58.0094 158.02 58.7734 158.418L61.7861 159.987C62.5501 160.385 63.4919 160.088 63.8898 159.324C64.2876 158.56 63.9909 157.618 63.2269 157.22L60.2141 155.651Z" fill="#D2D7E5" stroke="#5D5D65" stroke-width="1.5" stroke-miterlimit="10"/>
<path d="M87.8875 126.271C88.0034 125.365 87.3641 124.536 86.4596 124.42C85.5551 124.305 84.7278 124.946 84.6119 125.852L83.8848 131.536C83.7688 132.442 84.4081 133.27 85.3127 133.386C86.2172 133.502 87.0445 132.861 87.1604 131.955L87.8875 126.271Z" fill="#D2D7E5" stroke="#5D5D65" stroke-width="1.5" stroke-miterlimit="10"/>
<path d="M53.0578 134.339L53.0549 134.344C52.5785 135.169 52.8612 136.224 53.6863 136.7L58.5261 139.495C59.3512 139.971 60.4062 139.688 60.8825 138.863L60.8855 138.858C61.3618 138.033 61.0791 136.978 60.2541 136.502L55.4142 133.707C54.5892 133.231 53.5342 133.514 53.0578 134.339Z" fill="#D2D7E5" stroke="#5D5D65" stroke-width="1.5" stroke-miterlimit="10"/>
<path d="M182.687 185.747C182.846 185.723 184.246 186.007 185.321 185.741C186.077 185.564 186.597 185.262 187.099 184.961C187.69 184.607 188.21 184.229 188.866 183.898C190.142 183.248 192.204 183.13 193.675 183.579C194.49 183.827 195.045 184.187 195.612 184.542C196.173 184.902 196.693 185.28 197.479 185.558C198.501 185.924 199.629 186.024 200.87 185.853C201.904 185.717 202.571 185.369 203.203 185.002C203.788 184.66 204.29 184.294 204.917 183.963C206.075 183.354 207.475 183.189 209.022 183.39C209.938 183.514 210.588 183.809 211.155 184.146C211.929 184.607 212.573 185.115 213.53 185.51C214.174 185.77 214.912 185.906 215.763 185.924C217.074 185.959 218.067 185.7 218.912 185.262C219.644 184.878 220.199 184.441 220.926 184.057C221.576 183.709 222.285 183.419 223.313 183.342C224.819 183.23 226.024 183.455 227.017 183.98C227.838 184.424 228.458 184.926 229.333 185.345C230.124 185.723 231.158 185.942 232.227 185.924" stroke="#5D5D65" stroke-width="1.5" stroke-linecap="round" stroke-linejoin="round"/>
<path d="M179.467 191.004C179.703 191.152 179.945 191.3 180.199 191.447C180.755 191.76 181.322 192.073 182.178 192.233C183.903 192.546 185.357 192.304 186.479 191.749C187.347 191.317 187.956 190.803 188.807 190.366C189.781 189.864 191.306 189.58 192.912 189.84C193.863 189.988 194.49 190.319 195.098 190.662C195.748 191.04 196.268 191.453 197.012 191.796C198.117 192.31 199.393 192.499 200.917 192.28C201.856 192.144 202.512 191.849 203.097 191.5C203.835 191.069 204.438 190.591 205.318 190.207C206.553 189.675 208.426 189.604 209.784 190C210.552 190.23 211.084 190.549 211.61 190.874C212.183 191.235 212.703 191.613 213.429 191.914C214.487 192.357 216.099 192.534 217.582 192.192C218.522 191.979 219.118 191.607 219.703 191.241C220.3 190.862 220.879 190.484 221.629 190.159C222.592 189.74 224.276 189.64 225.439 189.876C226.278 190.053 226.869 190.325 227.412 190.644C228.163 191.093 228.795 191.583 229.734 191.961C230.461 192.257 231.294 192.381 232.221 192.363" stroke="#5D5D65" stroke-width="1.5" stroke-linecap="round" stroke-linejoin="round"/>
<path d="M173.843 196.351C174.7 196.138 175.639 196.103 176.708 196.256C177.801 196.416 178.439 196.788 179.077 197.16C179.745 197.556 180.294 197.993 181.115 198.336C182.167 198.773 183.419 198.885 184.754 198.702C185.712 198.566 186.391 198.235 186.993 197.881C187.572 197.538 188.086 197.178 188.701 196.841C189.87 196.209 191.572 195.973 193.22 196.315C194.242 196.528 194.868 196.93 195.494 197.332C196.02 197.662 196.516 198.011 197.166 198.3C198.064 198.696 199.122 198.838 200.362 198.767C201.55 198.69 202.347 198.365 203.044 197.958C203.824 197.497 204.474 196.995 205.419 196.593C206.488 196.144 208.178 196.032 209.478 196.339C210.293 196.534 210.872 196.841 211.403 197.172C211.953 197.509 212.479 197.863 213.081 198.182C214.481 198.921 216.679 198.944 218.038 198.483C218.575 198.306 219.006 198.076 219.408 197.84C220.046 197.461 220.602 197.054 221.322 196.705C222.563 196.097 224.701 195.967 226.196 196.493C226.757 196.693 227.188 196.936 227.614 197.19C228.27 197.58 228.831 198.005 229.634 198.348C230.278 198.625 231.253 198.785 232.222 198.779" stroke="#5D5D65" stroke-width="1.5" stroke-linecap="round" stroke-linejoin="round"/>
</svg>
