<svg width="280" height="280" viewBox="0 0 280 280" fill="none" xmlns="http://www.w3.org/2000/svg">
<path d="M158.67 123.069L177.915 142.586C178.093 142.764 178.188 143.006 178.188 143.254V183.093C178.188 183.341 178.087 183.584 177.915 183.761L158.676 203.154C158.498 203.338 158.248 203.438 157.993 203.438H105.026C104.497 203.438 104.069 203.013 104.069 202.486V123.731C104.069 123.205 104.497 122.779 105.026 122.779H157.993C158.248 122.779 158.498 122.88 158.676 123.063L158.67 123.069Z" fill="#253151" stroke="#C0C0CA" stroke-width="1.5" stroke-miterlimit="10"/>
<path d="M109.592 90.2996C109.074 89.2634 109.526 87.8563 109.497 86.6552C109.592 83.8351 108.866 80.5675 106.967 78.6952C104.646 76.0812 100.118 76.5757 98.3799 79.5902C97.1539 81.5448 97.273 84.153 97.1123 86.5492C96.9397 89.8286 96.7671 93.1021 96.5945 96.3814C96.4338 99.4076 96.172 102.522 97.1718 105.124C98.5584 108.839 101.498 112.531 104.932 114.497C111.032 118.13 120.334 117.418 129.278 116.917C137.913 116.493 145.15 114.315 138.586 104.936C134.694 99.5136 127.933 95.5159 121.643 93.5436C118.114 92.3838 114.68 91.6949 111.871 91.271C111.08 91.118 110.098 91.0238 109.622 90.3702L109.586 90.3114L109.592 90.2996Z" fill="#36415C" stroke="#C0C0CA" stroke-width="1.5" stroke-miterlimit="10"/>
<path d="M109.769 91.1699C107.541 91.4426 105.996 93.1496 105.381 95.3663C104.282 99.3434 107.541 103.048 109.147 104.873C116.558 113.29 133.083 112.241 141.129 111.156" stroke="#C0C0CA" stroke-width="1.5" stroke-miterlimit="10"/>
<path d="M97.0077 86.8103C93.6585 85.7296 91.9383 84.3755 92.0881 83.3415C92.238 82.3076 94.3101 81.5338 97.529 81.3604" fill="#36415C"/>
<path d="M97.0077 86.8103C93.6585 85.7296 91.9383 84.3755 92.0881 83.3415C92.238 82.3076 94.3101 81.5338 97.529 81.3604" stroke="#C0C0CA" stroke-width="1.5" stroke-miterlimit="10"/>
<path d="M100.799 82.4502C100.836 82.4502 101.202 82.4502 101.835 82.4502C102.302 82.4502 102.743 82.4502 102.979 82.4502" stroke="#C0C0CA" stroke-width="1.5" stroke-miterlimit="10" stroke-linecap="round"/>
<path d="M109.519 122.779V117.329" stroke="#C0C0CA" stroke-width="1.5" stroke-miterlimit="10"/>
<path d="M112.789 122.779V117.329" stroke="#C0C0CA" stroke-width="1.5" stroke-miterlimit="10"/>
<path d="M177.643 121.689C182.76 121.689 186.908 117.541 186.908 112.424C186.908 107.307 182.76 103.159 177.643 103.159C172.526 103.159 168.378 107.307 168.378 112.424C168.378 117.541 172.526 121.689 177.643 121.689Z" fill="#36415C" stroke="#C0C0CA" stroke-width="1.5" stroke-miterlimit="10"/>
<path d="M183.73 123.128L185.916 127.7" stroke="#C0C0CA" stroke-width="1.5" stroke-miterlimit="10" stroke-linecap="round"/>
<path d="M173.039 123.103L170.829 127.663" stroke="#C0C0CA" stroke-width="1.5" stroke-miterlimit="10" stroke-linecap="round"/>
<path d="M166.392 114.719L161.447 115.835" stroke="#C0C0CA" stroke-width="1.5" stroke-miterlimit="10" stroke-linecap="round"/>
<path d="M168.802 104.304L164.844 101.132" stroke="#C0C0CA" stroke-width="1.5" stroke-miterlimit="10" stroke-linecap="round"/>
<path d="M178.45 99.6907L178.462 94.6221" stroke="#C0C0CA" stroke-width="1.5" stroke-miterlimit="10" stroke-linecap="round"/>
<path d="M188.074 104.352L192.044 101.203" stroke="#C0C0CA" stroke-width="1.5" stroke-miterlimit="10" stroke-linecap="round"/>
<path d="M190.425 114.786L195.358 115.926" stroke="#C0C0CA" stroke-width="1.5" stroke-miterlimit="10" stroke-linecap="round"/>
<path d="M24.5 203.438H256.667" stroke="#C0C0CA" stroke-width="1.5" stroke-miterlimit="10"/>
<path d="M94.2592 203.438C93.4954 196.173 93.2134 171.595 75.1113 151.45C67.9139 143.446 62.72 140.294 60.4697 139.129" stroke="#C0C0CA" stroke-width="1.5" stroke-miterlimit="10"/>
<path d="M94.2588 203.438C93.8271 198.58 93.1587 191.308 89.0244 183.539C81.288 169 68.7076 162.201 63.7393 159.839" stroke="#C0C0CA" stroke-width="1.5" stroke-miterlimit="10"/>
<path d="M88.809 174.008C87.7413 168.688 86.5383 161.566 86.0021 154.635C85.3933 146.768 85.4513 139.692 85.7943 133.679" stroke="#C0C0CA" stroke-width="1.5" stroke-miterlimit="10"/>
<path d="M95.2214 203.438C94.3167 195.304 92.828 184.486 93.2392 172.981C93.5477 164.316 94.3619 157.662 95.3489 151.119" stroke="#C0C0CA" stroke-width="1.5" stroke-miterlimit="10"/>
<path d="M203.257 143.489V154.284H192.985V162.019H184.728V143.489H203.257Z" fill="#36415C" stroke="#C0C0CA" stroke-width="1.5" stroke-miterlimit="10"/>
<path d="M203.257 154.389H193.447V162.019H203.257V154.389Z" fill="#253151" stroke="#C0C0CA" stroke-width="1.5" stroke-miterlimit="10"/>
<path d="M211.977 154.389V172.918H193.447V162.124H203.719V154.389H211.977Z" fill="#36415C" stroke="#C0C0CA" stroke-width="1.5" stroke-miterlimit="10"/>
<path d="M153.118 166.599C151.567 157.501 144.768 151.101 139.046 151.119C131.649 151.143 125.577 159.104 125.879 168.456C126.151 177.024 132.252 185.71 133.785 187.089" stroke="#C0C0CA" stroke-width="1.5" stroke-miterlimit="10" stroke-linecap="round"/>
<path d="M139.024 165.289C138.938 165.992 138.296 172.085 143.048 176.687C147.605 181.103 153.434 180.57 154.208 180.485" stroke="#C0C0CA" stroke-width="1.5" stroke-miterlimit="10" stroke-linecap="round"/>
<path d="M147.733 188.179C143.228 185.693 133.405 179.065 132.329 169.881C131.9 166.121 132.841 161.555 135.799 159.128C138.628 157.001 142.351 158.77 144.269 161.496C145.592 163.282 145.904 165.574 146.239 167.595C146.615 172.278 152.867 175.393 156.485 172.179C160.266 168.4 160.249 161.719 158.608 156.842C156.396 150.849 151.321 146.466 145.468 144.568C125.348 138.474 114.443 159.346 121.46 178.425" stroke="#C0C0CA" stroke-width="1.5" stroke-miterlimit="10" stroke-linecap="round"/>
<path d="M97.4881 144.904L97.4824 144.902C96.6389 144.672 95.7684 145.169 95.5381 146.013L94.6559 149.244C94.4256 150.088 94.9228 150.958 95.7663 151.188L95.772 151.19C96.6155 151.42 97.486 150.923 97.7163 150.079L98.5985 146.848C98.8287 146.005 98.3316 145.134 97.4881 144.904Z" fill="#36415C" stroke="#C0C0CA" stroke-width="1.5" stroke-miterlimit="10"/>
<path d="M60.2137 155.651C59.4497 155.253 58.5079 155.55 58.11 156.314C57.7122 157.078 58.009 158.02 58.7729 158.418L61.7857 159.987C62.5496 160.385 63.4914 160.088 63.8893 159.324C64.2871 158.56 63.9904 157.618 63.2264 157.22L60.2137 155.651Z" fill="#36415C" stroke="#C0C0CA" stroke-width="1.5" stroke-miterlimit="10"/>
<path d="M87.887 126.271C88.0029 125.365 87.3636 124.536 86.4591 124.42C85.5546 124.305 84.7273 124.946 84.6114 125.852L83.8843 131.536C83.7683 132.442 84.4076 133.27 85.3122 133.386C86.2167 133.502 87.044 132.861 87.1599 131.955L87.887 126.271Z" fill="#36415C" stroke="#C0C0CA" stroke-width="1.5" stroke-miterlimit="10"/>
<path d="M53.0578 134.339L53.0549 134.344C52.5785 135.169 52.8612 136.224 53.6863 136.7L58.5261 139.495C59.3512 139.971 60.4062 139.688 60.8825 138.863L60.8855 138.858C61.3618 138.033 61.0791 136.978 60.2541 136.502L55.4142 133.707C54.5892 133.231 53.5342 133.514 53.0578 134.339Z" fill="#36415C" stroke="#C0C0CA" stroke-width="1.5" stroke-miterlimit="10"/>
<path d="M182.687 185.747C182.846 185.723 184.246 186.007 185.321 185.741C186.077 185.564 186.597 185.262 187.099 184.961C187.69 184.607 188.21 184.229 188.866 183.898C190.142 183.248 192.204 183.13 193.675 183.579C194.49 183.827 195.045 184.187 195.612 184.542C196.173 184.902 196.693 185.28 197.479 185.558C198.501 185.924 199.629 186.024 200.87 185.853C201.904 185.717 202.571 185.369 203.203 185.002C203.788 184.66 204.29 184.294 204.917 183.963C206.075 183.354 207.475 183.189 209.022 183.39C209.938 183.514 210.588 183.809 211.155 184.146C211.929 184.607 212.573 185.115 213.53 185.51C214.174 185.77 214.912 185.906 215.763 185.924C217.074 185.959 218.067 185.7 218.912 185.262C219.644 184.878 220.199 184.441 220.926 184.057C221.576 183.709 222.285 183.419 223.313 183.342C224.819 183.23 226.024 183.455 227.017 183.98C227.838 184.424 228.458 184.926 229.333 185.345C230.124 185.723 231.158 185.942 232.227 185.924" stroke="#C0C0CA" stroke-width="1.5" stroke-linecap="round" stroke-linejoin="round"/>
<path d="M179.466 191.004C179.702 191.152 179.944 191.3 180.198 191.447C180.754 191.76 181.321 192.073 182.177 192.233C183.902 192.546 185.356 192.304 186.478 191.749C187.346 191.317 187.955 190.803 188.806 190.366C189.78 189.864 191.305 189.58 192.911 189.84C193.863 189.988 194.489 190.319 195.097 190.662C195.747 191.04 196.267 191.453 197.011 191.796C198.116 192.31 199.392 192.499 200.916 192.28C201.855 192.144 202.511 191.849 203.096 191.5C203.834 191.069 204.437 190.591 205.317 190.207C206.552 189.675 208.425 189.604 209.783 190C210.551 190.23 211.083 190.549 211.609 190.874C212.182 191.235 212.702 191.613 213.428 191.914C214.486 192.357 216.099 192.534 217.581 192.192C218.521 191.979 219.117 191.607 219.702 191.241C220.299 190.862 220.878 190.484 221.628 190.159C222.591 189.74 224.275 189.64 225.438 189.876C226.277 190.053 226.868 190.325 227.411 190.644C228.162 191.093 228.794 191.583 229.733 191.961C230.46 192.257 231.293 192.381 232.22 192.363" stroke="#C0C0CA" stroke-width="1.5" stroke-linecap="round" stroke-linejoin="round"/>
<path d="M173.843 196.351C174.699 196.138 175.639 196.103 176.708 196.256C177.801 196.416 178.439 196.788 179.077 197.16C179.744 197.556 180.294 197.993 181.115 198.336C182.166 198.773 183.419 198.885 184.754 198.702C185.711 198.566 186.39 198.235 186.993 197.881C187.572 197.538 188.086 197.178 188.7 196.841C189.87 196.209 191.571 195.973 193.22 196.315C194.242 196.528 194.868 196.93 195.494 197.332C196.02 197.662 196.516 198.011 197.166 198.3C198.064 198.696 199.121 198.838 200.362 198.767C201.549 198.69 202.347 198.365 203.044 197.958C203.824 197.497 204.473 196.995 205.419 196.593C206.488 196.144 208.177 196.032 209.477 196.339C210.292 196.534 210.871 196.841 211.403 197.172C211.952 197.509 212.478 197.863 213.081 198.182C214.481 198.921 216.678 198.944 218.037 198.483C218.575 198.306 219.006 198.076 219.408 197.84C220.046 197.461 220.601 197.054 221.322 196.705C222.562 196.097 224.701 195.967 226.195 196.493C226.757 196.693 227.188 196.936 227.613 197.19C228.269 197.58 228.83 198.005 229.634 198.348C230.278 198.625 231.252 198.785 232.221 198.779" stroke="#C0C0CA" stroke-width="1.5" stroke-linecap="round" stroke-linejoin="round"/>
</svg>
