<svg width="280" height="280" viewBox="0 0 280 280" fill="none" xmlns="http://www.w3.org/2000/svg">
<path d="M136.07 208.484C175.78 208.484 207.972 176.439 207.972 136.909C207.972 97.3785 175.78 65.333 136.07 65.333C96.3589 65.333 64.167 97.3785 64.167 136.909C64.167 176.439 96.3589 208.484 136.07 208.484Z" fill="#36415C"/>
<path d="M136.07 96.7959C114.12 96.7959 96.3223 114.513 96.3223 136.363C96.3223 158.213 114.12 175.93 136.07 175.93C158.02 175.93 175.818 158.213 175.818 136.363C175.818 114.513 158.02 96.7959 136.07 96.7959ZM136.07 165.016C120.173 165.016 107.286 152.187 107.286 136.363C107.286 120.538 120.173 107.709 136.07 107.709C151.967 107.709 164.854 120.538 164.854 136.363C164.854 152.187 151.967 165.016 136.07 165.016Z" fill="#36415C" stroke="#C0C0CA" stroke-width="1.5" stroke-miterlimit="10"/>
<path d="M166.16 163.461L185.497 182.71" stroke="#C0C0CA" stroke-width="1.5" stroke-miterlimit="10"/>
<path d="M188.062 173.593C184.823 170.369 179.573 170.369 176.334 173.593C173.096 176.816 173.096 182.043 176.334 185.267L199.343 208.171C202.582 211.395 207.832 211.395 211.071 208.171C214.309 204.948 214.309 199.721 211.071 196.497L188.062 173.593Z" fill="#36415C" stroke="#C0C0CA" stroke-width="1.5" stroke-miterlimit="10"/>
</svg>
