<svg width="280" height="280" viewBox="0 0 280 280" fill="none" xmlns="http://www.w3.org/2000/svg">
<path d="M136.069 208.484C175.78 208.484 207.972 176.439 207.972 136.909C207.972 97.3785 175.78 65.333 136.069 65.333C96.3584 65.333 64.1665 97.3785 64.1665 136.909C64.1665 176.439 96.3584 208.484 136.069 208.484Z" fill="#D2D7E5"/>
<path d="M136.069 96.7959C114.12 96.7959 96.3218 114.513 96.3218 136.363C96.3218 158.213 114.12 175.93 136.069 175.93C158.019 175.93 175.817 158.213 175.817 136.363C175.817 114.513 158.019 96.7959 136.069 96.7959ZM136.069 165.016C120.173 165.016 107.285 152.187 107.285 136.363C107.285 120.538 120.173 107.709 136.069 107.709C151.966 107.709 164.854 120.538 164.854 136.363C164.854 152.187 151.966 165.016 136.069 165.016Z" fill="#D2D7E5" stroke="#5D5D65" stroke-width="1.5" stroke-miterlimit="10"/>
<path d="M166.16 163.461L185.497 182.71" stroke="#5D5D65" stroke-width="1.5" stroke-miterlimit="10"/>
<path d="M188.061 173.593C184.823 170.369 179.572 170.369 176.334 173.593C173.095 176.816 173.095 182.043 176.334 185.267L199.343 208.171C202.581 211.395 207.832 211.395 211.07 208.171C214.309 204.948 214.309 199.721 211.07 196.497L188.061 173.593Z" fill="#D2D7E5" stroke="#5D5D65" stroke-width="1.5" stroke-miterlimit="10"/>
</svg>
